<?xml version="1.0" encoding="utf-8" standalone="no"?>
<!DOCTYPE svg PUBLIC "-//W3C//DTD SVG 1.1//EN"
  "http://www.w3.org/Graphics/SVG/1.1/DTD/svg11.dtd">
<svg xmlns:xlink="http://www.w3.org/1999/xlink" width="864pt" height="432pt" viewBox="0 0 864 432" xmlns="http://www.w3.org/2000/svg" version="1.1">
 <metadata>
  <rdf:RDF xmlns:dc="http://purl.org/dc/elements/1.1/" xmlns:cc="http://creativecommons.org/ns#" xmlns:rdf="http://www.w3.org/1999/02/22-rdf-syntax-ns#">
   <cc:Work>
    <dc:type rdf:resource="http://purl.org/dc/dcmitype/StillImage"/>
    <dc:date>2023-01-16T20:21:04.696043</dc:date>
    <dc:format>image/svg+xml</dc:format>
    <dc:creator>
     <cc:Agent>
      <dc:title>Matplotlib v3.6.2, https://matplotlib.org/</dc:title>
     </cc:Agent>
    </dc:creator>
   </cc:Work>
  </rdf:RDF>
 </metadata>
 <defs>
  <style type="text/css">*{stroke-linejoin: round; stroke-linecap: butt}</style>
 </defs>
 <g id="figure_1">
  <g id="patch_1">
   <path d="M 0 432 
L 864 432 
L 864 0 
L 0 0 
z
" style="fill: #ffffff"/>
  </g>
  <g id="axes_1">
   <g id="patch_2">
    <path d="M 108 384.48 
L 777.6 384.48 
L 777.6 51.84 
L 108 51.84 
z
" style="fill: #eaeaf2"/>
   </g>
   <g id="matplotlib.axis_1">
    <g id="xtick_1">
     <g id="line2d_1">
      <path d="M 132.287603 384.48 
L 132.287603 51.84 
" clip-path="url(#pa7a6375836)" style="fill: none; stroke: #ffffff; stroke-linecap: round"/>
     </g>
     <g id="text_1">
      <!-- 0 -->
      <g style="fill: #262626" transform="translate(128.788228 402.338281) scale(0.11 -0.11)">
       <defs>
        <path id="DejaVuSans-30" d="M 2034 4250 
Q 1547 4250 1301 3770 
Q 1056 3291 1056 2328 
Q 1056 1369 1301 889 
Q 1547 409 2034 409 
Q 2525 409 2770 889 
Q 3016 1369 3016 2328 
Q 3016 3291 2770 3770 
Q 2525 4250 2034 4250 
z
M 2034 4750 
Q 2819 4750 3233 4129 
Q 3647 3509 3647 2328 
Q 3647 1150 3233 529 
Q 2819 -91 2034 -91 
Q 1250 -91 836 529 
Q 422 1150 422 2328 
Q 422 3509 836 4129 
Q 1250 4750 2034 4750 
z
" transform="scale(0.015625)"/>
       </defs>
       <use xlink:href="#DejaVuSans-30"/>
      </g>
     </g>
    </g>
    <g id="xtick_2">
     <g id="line2d_2">
      <path d="M 255.26281 384.48 
L 255.26281 51.84 
" clip-path="url(#pa7a6375836)" style="fill: none; stroke: #ffffff; stroke-linecap: round"/>
     </g>
     <g id="text_2">
      <!-- 20 -->
      <g style="fill: #262626" transform="translate(248.26406 402.338281) scale(0.11 -0.11)">
       <defs>
        <path id="DejaVuSans-32" d="M 1228 531 
L 3431 531 
L 3431 0 
L 469 0 
L 469 531 
Q 828 903 1448 1529 
Q 2069 2156 2228 2338 
Q 2531 2678 2651 2914 
Q 2772 3150 2772 3378 
Q 2772 3750 2511 3984 
Q 2250 4219 1831 4219 
Q 1534 4219 1204 4116 
Q 875 4013 500 3803 
L 500 4441 
Q 881 4594 1212 4672 
Q 1544 4750 1819 4750 
Q 2544 4750 2975 4387 
Q 3406 4025 3406 3419 
Q 3406 3131 3298 2873 
Q 3191 2616 2906 2266 
Q 2828 2175 2409 1742 
Q 1991 1309 1228 531 
z
" transform="scale(0.015625)"/>
       </defs>
       <use xlink:href="#DejaVuSans-32"/>
       <use xlink:href="#DejaVuSans-30" x="63.623047"/>
      </g>
     </g>
    </g>
    <g id="xtick_3">
     <g id="line2d_3">
      <path d="M 378.238017 384.48 
L 378.238017 51.84 
" clip-path="url(#pa7a6375836)" style="fill: none; stroke: #ffffff; stroke-linecap: round"/>
     </g>
     <g id="text_3">
      <!-- 40 -->
      <g style="fill: #262626" transform="translate(371.239267 402.338281) scale(0.11 -0.11)">
       <defs>
        <path id="DejaVuSans-34" d="M 2419 4116 
L 825 1625 
L 2419 1625 
L 2419 4116 
z
M 2253 4666 
L 3047 4666 
L 3047 1625 
L 3713 1625 
L 3713 1100 
L 3047 1100 
L 3047 0 
L 2419 0 
L 2419 1100 
L 313 1100 
L 313 1709 
L 2253 4666 
z
" transform="scale(0.015625)"/>
       </defs>
       <use xlink:href="#DejaVuSans-34"/>
       <use xlink:href="#DejaVuSans-30" x="63.623047"/>
      </g>
     </g>
    </g>
    <g id="xtick_4">
     <g id="line2d_4">
      <path d="M 501.213223 384.48 
L 501.213223 51.84 
" clip-path="url(#pa7a6375836)" style="fill: none; stroke: #ffffff; stroke-linecap: round"/>
     </g>
     <g id="text_4">
      <!-- 60 -->
      <g style="fill: #262626" transform="translate(494.214473 402.338281) scale(0.11 -0.11)">
       <defs>
        <path id="DejaVuSans-36" d="M 2113 2584 
Q 1688 2584 1439 2293 
Q 1191 2003 1191 1497 
Q 1191 994 1439 701 
Q 1688 409 2113 409 
Q 2538 409 2786 701 
Q 3034 994 3034 1497 
Q 3034 2003 2786 2293 
Q 2538 2584 2113 2584 
z
M 3366 4563 
L 3366 3988 
Q 3128 4100 2886 4159 
Q 2644 4219 2406 4219 
Q 1781 4219 1451 3797 
Q 1122 3375 1075 2522 
Q 1259 2794 1537 2939 
Q 1816 3084 2150 3084 
Q 2853 3084 3261 2657 
Q 3669 2231 3669 1497 
Q 3669 778 3244 343 
Q 2819 -91 2113 -91 
Q 1303 -91 875 529 
Q 447 1150 447 2328 
Q 447 3434 972 4092 
Q 1497 4750 2381 4750 
Q 2619 4750 2861 4703 
Q 3103 4656 3366 4563 
z
" transform="scale(0.015625)"/>
       </defs>
       <use xlink:href="#DejaVuSans-36"/>
       <use xlink:href="#DejaVuSans-30" x="63.623047"/>
      </g>
     </g>
    </g>
    <g id="xtick_5">
     <g id="line2d_5">
      <path d="M 624.18843 384.48 
L 624.18843 51.84 
" clip-path="url(#pa7a6375836)" style="fill: none; stroke: #ffffff; stroke-linecap: round"/>
     </g>
     <g id="text_5">
      <!-- 80 -->
      <g style="fill: #262626" transform="translate(617.18968 402.338281) scale(0.11 -0.11)">
       <defs>
        <path id="DejaVuSans-38" d="M 2034 2216 
Q 1584 2216 1326 1975 
Q 1069 1734 1069 1313 
Q 1069 891 1326 650 
Q 1584 409 2034 409 
Q 2484 409 2743 651 
Q 3003 894 3003 1313 
Q 3003 1734 2745 1975 
Q 2488 2216 2034 2216 
z
M 1403 2484 
Q 997 2584 770 2862 
Q 544 3141 544 3541 
Q 544 4100 942 4425 
Q 1341 4750 2034 4750 
Q 2731 4750 3128 4425 
Q 3525 4100 3525 3541 
Q 3525 3141 3298 2862 
Q 3072 2584 2669 2484 
Q 3125 2378 3379 2068 
Q 3634 1759 3634 1313 
Q 3634 634 3220 271 
Q 2806 -91 2034 -91 
Q 1263 -91 848 271 
Q 434 634 434 1313 
Q 434 1759 690 2068 
Q 947 2378 1403 2484 
z
M 1172 3481 
Q 1172 3119 1398 2916 
Q 1625 2713 2034 2713 
Q 2441 2713 2670 2916 
Q 2900 3119 2900 3481 
Q 2900 3844 2670 4047 
Q 2441 4250 2034 4250 
Q 1625 4250 1398 4047 
Q 1172 3844 1172 3481 
z
" transform="scale(0.015625)"/>
       </defs>
       <use xlink:href="#DejaVuSans-38"/>
       <use xlink:href="#DejaVuSans-30" x="63.623047"/>
      </g>
     </g>
    </g>
    <g id="xtick_6">
     <g id="line2d_6">
      <path d="M 747.163636 384.48 
L 747.163636 51.84 
" clip-path="url(#pa7a6375836)" style="fill: none; stroke: #ffffff; stroke-linecap: round"/>
     </g>
     <g id="text_6">
      <!-- 100 -->
      <g style="fill: #262626" transform="translate(736.665511 402.338281) scale(0.11 -0.11)">
       <defs>
        <path id="DejaVuSans-31" d="M 794 531 
L 1825 531 
L 1825 4091 
L 703 3866 
L 703 4441 
L 1819 4666 
L 2450 4666 
L 2450 531 
L 3481 531 
L 3481 0 
L 794 0 
L 794 531 
z
" transform="scale(0.015625)"/>
       </defs>
       <use xlink:href="#DejaVuSans-31"/>
       <use xlink:href="#DejaVuSans-30" x="63.623047"/>
       <use xlink:href="#DejaVuSans-30" x="127.246094"/>
      </g>
     </g>
    </g>
    <g id="text_7">
     <!-- Количество итераций -->
     <g style="fill: #262626" transform="translate(367.763594 418.503906) scale(0.13 -0.13)">
      <defs>
       <path id="DejaVuSans-41a" d="M 628 4666 
L 1259 4666 
L 1259 2359 
L 3516 4666 
L 4325 4666 
L 2522 2822 
L 4419 0 
L 3731 0 
L 2113 2403 
L 1259 1531 
L 1259 0 
L 628 0 
L 628 4666 
z
" transform="scale(0.015625)"/>
       <path id="DejaVuSans-43e" d="M 1959 3097 
Q 1497 3097 1228 2736 
Q 959 2375 959 1747 
Q 959 1119 1226 758 
Q 1494 397 1959 397 
Q 2419 397 2687 759 
Q 2956 1122 2956 1747 
Q 2956 2369 2687 2733 
Q 2419 3097 1959 3097 
z
M 1959 3584 
Q 2709 3584 3137 3096 
Q 3566 2609 3566 1747 
Q 3566 888 3137 398 
Q 2709 -91 1959 -91 
Q 1206 -91 779 398 
Q 353 888 353 1747 
Q 353 2609 779 3096 
Q 1206 3584 1959 3584 
z
" transform="scale(0.015625)"/>
       <path id="DejaVuSans-43b" d="M 238 0 
L 238 478 
Q 806 566 981 959 
Q 1194 1513 1194 2928 
L 1194 3500 
L 3559 3500 
L 3559 0 
L 2984 0 
L 2984 3041 
L 1769 3041 
L 1769 2694 
Q 1769 1344 1494 738 
Q 1200 91 238 0 
z
" transform="scale(0.015625)"/>
       <path id="DejaVuSans-438" d="M 3578 3500 
L 3578 0 
L 3006 0 
L 3006 2809 
L 1319 0 
L 581 0 
L 581 3500 
L 1153 3500 
L 1153 697 
L 2838 3500 
L 3578 3500 
z
" transform="scale(0.015625)"/>
       <path id="DejaVuSans-447" d="M 2625 0 
L 2625 1472 
L 1553 1472 
Q 1075 1472 756 1769 
Q 469 2038 469 2613 
L 469 3500 
L 1044 3500 
L 1044 2666 
Q 1044 2300 1206 2116 
Q 1372 1931 1697 1931 
L 2625 1931 
L 2625 3500 
L 3200 3500 
L 3200 0 
L 2625 0 
z
" transform="scale(0.015625)"/>
       <path id="DejaVuSans-435" d="M 3597 1894 
L 3597 1613 
L 953 1613 
Q 991 1019 1311 708 
Q 1631 397 2203 397 
Q 2534 397 2845 478 
Q 3156 559 3463 722 
L 3463 178 
Q 3153 47 2828 -22 
Q 2503 -91 2169 -91 
Q 1331 -91 842 396 
Q 353 884 353 1716 
Q 353 2575 817 3079 
Q 1281 3584 2069 3584 
Q 2775 3584 3186 3129 
Q 3597 2675 3597 1894 
z
M 3022 2063 
Q 3016 2534 2758 2815 
Q 2500 3097 2075 3097 
Q 1594 3097 1305 2825 
Q 1016 2553 972 2059 
L 3022 2063 
z
" transform="scale(0.015625)"/>
       <path id="DejaVuSans-441" d="M 3122 3366 
L 3122 2828 
Q 2878 2963 2633 3030 
Q 2388 3097 2138 3097 
Q 1578 3097 1268 2742 
Q 959 2388 959 1747 
Q 959 1106 1268 751 
Q 1578 397 2138 397 
Q 2388 397 2633 464 
Q 2878 531 3122 666 
L 3122 134 
Q 2881 22 2623 -34 
Q 2366 -91 2075 -91 
Q 1284 -91 818 406 
Q 353 903 353 1747 
Q 353 2603 823 3093 
Q 1294 3584 2113 3584 
Q 2378 3584 2631 3529 
Q 2884 3475 3122 3366 
z
" transform="scale(0.015625)"/>
       <path id="DejaVuSans-442" d="M 188 3500 
L 3541 3500 
L 3541 3041 
L 2147 3041 
L 2147 0 
L 1581 0 
L 1581 3041 
L 188 3041 
L 188 3500 
z
" transform="scale(0.015625)"/>
       <path id="DejaVuSans-432" d="M 1156 1613 
L 1156 459 
L 1975 459 
Q 2369 459 2575 607 
Q 2781 756 2781 1038 
Q 2781 1319 2575 1466 
Q 2369 1613 1975 1613 
L 1156 1613 
z
M 1156 3041 
L 1156 2072 
L 1913 2072 
Q 2238 2072 2444 2201 
Q 2650 2331 2650 2563 
Q 2650 2794 2444 2917 
Q 2238 3041 1913 3041 
L 1156 3041 
z
M 581 3500 
L 1950 3500 
Q 2566 3500 2897 3275 
Q 3228 3050 3228 2634 
Q 3228 2313 3059 2123 
Q 2891 1934 2559 1888 
Q 2956 1813 3175 1575 
Q 3394 1338 3394 981 
Q 3394 513 3033 256 
Q 2672 0 2003 0 
L 581 0 
L 581 3500 
z
" transform="scale(0.015625)"/>
       <path id="DejaVuSans-20" transform="scale(0.015625)"/>
       <path id="DejaVuSans-440" d="M 1159 525 
L 1159 -1331 
L 581 -1331 
L 581 3500 
L 1159 3500 
L 1159 2969 
Q 1341 3281 1617 3432 
Q 1894 3584 2278 3584 
Q 2916 3584 3314 3078 
Q 3713 2572 3713 1747 
Q 3713 922 3314 415 
Q 2916 -91 2278 -91 
Q 1894 -91 1617 61 
Q 1341 213 1159 525 
z
M 3116 1747 
Q 3116 2381 2855 2742 
Q 2594 3103 2138 3103 
Q 1681 3103 1420 2742 
Q 1159 2381 1159 1747 
Q 1159 1113 1420 752 
Q 1681 391 2138 391 
Q 2594 391 2855 752 
Q 3116 1113 3116 1747 
z
" transform="scale(0.015625)"/>
       <path id="DejaVuSans-430" d="M 2194 1759 
Q 1497 1759 1228 1600 
Q 959 1441 959 1056 
Q 959 750 1161 570 
Q 1363 391 1709 391 
Q 2188 391 2477 730 
Q 2766 1069 2766 1631 
L 2766 1759 
L 2194 1759 
z
M 3341 1997 
L 3341 0 
L 2766 0 
L 2766 531 
Q 2569 213 2275 61 
Q 1981 -91 1556 -91 
Q 1019 -91 701 211 
Q 384 513 384 1019 
Q 384 1609 779 1909 
Q 1175 2209 1959 2209 
L 2766 2209 
L 2766 2266 
Q 2766 2663 2505 2880 
Q 2244 3097 1772 3097 
Q 1472 3097 1187 3025 
Q 903 2953 641 2809 
L 641 3341 
Q 956 3463 1253 3523 
Q 1550 3584 1831 3584 
Q 2591 3584 2966 3190 
Q 3341 2797 3341 1997 
z
" transform="scale(0.015625)"/>
       <path id="DejaVuSans-446" d="M 3603 0 
L 581 0 
L 581 3500 
L 1159 3500 
L 1159 459 
L 3025 459 
L 3025 3500 
L 3603 3500 
L 3603 459 
L 4063 459 
L 4063 -884 
L 3603 -884 
L 3603 0 
z
" transform="scale(0.015625)"/>
       <path id="DejaVuSans-439" d="M 3578 3500 
L 3578 0 
L 3006 0 
L 3006 2809 
L 1319 0 
L 581 0 
L 581 3500 
L 1153 3500 
L 1153 697 
L 2838 3500 
L 3578 3500 
z
M 1102 4833 
L 1471 4833 
Q 1505 4599 1656 4481 
Q 1808 4364 2080 4364 
Q 2349 4364 2499 4480 
Q 2649 4596 2689 4833 
L 3058 4833 
Q 3027 4386 2780 4161 
Q 2533 3936 2080 3936 
Q 1627 3936 1380 4161 
Q 1133 4386 1102 4833 
z
" transform="scale(0.015625)"/>
      </defs>
      <use xlink:href="#DejaVuSans-41a"/>
      <use xlink:href="#DejaVuSans-43e" x="70.996094"/>
      <use xlink:href="#DejaVuSans-43b" x="132.177734"/>
      <use xlink:href="#DejaVuSans-438" x="196.09375"/>
      <use xlink:href="#DejaVuSans-447" x="261.083984"/>
      <use xlink:href="#DejaVuSans-435" x="320.166016"/>
      <use xlink:href="#DejaVuSans-441" x="381.689453"/>
      <use xlink:href="#DejaVuSans-442" x="436.669922"/>
      <use xlink:href="#DejaVuSans-432" x="494.921875"/>
      <use xlink:href="#DejaVuSans-43e" x="553.857422"/>
      <use xlink:href="#DejaVuSans-20" x="615.039062"/>
      <use xlink:href="#DejaVuSans-438" x="646.826172"/>
      <use xlink:href="#DejaVuSans-442" x="711.816406"/>
      <use xlink:href="#DejaVuSans-435" x="770.068359"/>
      <use xlink:href="#DejaVuSans-440" x="831.591797"/>
      <use xlink:href="#DejaVuSans-430" x="895.068359"/>
      <use xlink:href="#DejaVuSans-446" x="956.347656"/>
      <use xlink:href="#DejaVuSans-438" x="1024.414062"/>
      <use xlink:href="#DejaVuSans-439" x="1089.404297"/>
     </g>
    </g>
   </g>
   <g id="matplotlib.axis_2">
    <g id="ytick_1">
     <g id="line2d_7">
      <path d="M 108 371.699496 
L 777.6 371.699496 
" clip-path="url(#pa7a6375836)" style="fill: none; stroke: #ffffff; stroke-linecap: round"/>
     </g>
     <g id="text_8">
      <!-- 330 -->
      <g style="fill: #262626" transform="translate(77.50375 375.878637) scale(0.11 -0.11)">
       <defs>
        <path id="DejaVuSans-33" d="M 2597 2516 
Q 3050 2419 3304 2112 
Q 3559 1806 3559 1356 
Q 3559 666 3084 287 
Q 2609 -91 1734 -91 
Q 1441 -91 1130 -33 
Q 819 25 488 141 
L 488 750 
Q 750 597 1062 519 
Q 1375 441 1716 441 
Q 2309 441 2620 675 
Q 2931 909 2931 1356 
Q 2931 1769 2642 2001 
Q 2353 2234 1838 2234 
L 1294 2234 
L 1294 2753 
L 1863 2753 
Q 2328 2753 2575 2939 
Q 2822 3125 2822 3475 
Q 2822 3834 2567 4026 
Q 2313 4219 1838 4219 
Q 1578 4219 1281 4162 
Q 984 4106 628 3988 
L 628 4550 
Q 988 4650 1302 4700 
Q 1616 4750 1894 4750 
Q 2613 4750 3031 4423 
Q 3450 4097 3450 3541 
Q 3450 3153 3228 2886 
Q 3006 2619 2597 2516 
z
" transform="scale(0.015625)"/>
       </defs>
       <use xlink:href="#DejaVuSans-33"/>
       <use xlink:href="#DejaVuSans-33" x="63.623047"/>
       <use xlink:href="#DejaVuSans-30" x="127.246094"/>
      </g>
     </g>
    </g>
    <g id="ytick_2">
     <g id="line2d_8">
      <path d="M 108 325.41559 
L 777.6 325.41559 
" clip-path="url(#pa7a6375836)" style="fill: none; stroke: #ffffff; stroke-linecap: round"/>
     </g>
     <g id="text_9">
      <!-- 340 -->
      <g style="fill: #262626" transform="translate(77.50375 329.59473) scale(0.11 -0.11)">
       <use xlink:href="#DejaVuSans-33"/>
       <use xlink:href="#DejaVuSans-34" x="63.623047"/>
       <use xlink:href="#DejaVuSans-30" x="127.246094"/>
      </g>
     </g>
    </g>
    <g id="ytick_3">
     <g id="line2d_9">
      <path d="M 108 279.131683 
L 777.6 279.131683 
" clip-path="url(#pa7a6375836)" style="fill: none; stroke: #ffffff; stroke-linecap: round"/>
     </g>
     <g id="text_10">
      <!-- 350 -->
      <g style="fill: #262626" transform="translate(77.50375 283.310824) scale(0.11 -0.11)">
       <defs>
        <path id="DejaVuSans-35" d="M 691 4666 
L 3169 4666 
L 3169 4134 
L 1269 4134 
L 1269 2991 
Q 1406 3038 1543 3061 
Q 1681 3084 1819 3084 
Q 2600 3084 3056 2656 
Q 3513 2228 3513 1497 
Q 3513 744 3044 326 
Q 2575 -91 1722 -91 
Q 1428 -91 1123 -41 
Q 819 9 494 109 
L 494 744 
Q 775 591 1075 516 
Q 1375 441 1709 441 
Q 2250 441 2565 725 
Q 2881 1009 2881 1497 
Q 2881 1984 2565 2268 
Q 2250 2553 1709 2553 
Q 1456 2553 1204 2497 
Q 953 2441 691 2322 
L 691 4666 
z
" transform="scale(0.015625)"/>
       </defs>
       <use xlink:href="#DejaVuSans-33"/>
       <use xlink:href="#DejaVuSans-35" x="63.623047"/>
       <use xlink:href="#DejaVuSans-30" x="127.246094"/>
      </g>
     </g>
    </g>
    <g id="ytick_4">
     <g id="line2d_10">
      <path d="M 108 232.847777 
L 777.6 232.847777 
" clip-path="url(#pa7a6375836)" style="fill: none; stroke: #ffffff; stroke-linecap: round"/>
     </g>
     <g id="text_11">
      <!-- 360 -->
      <g style="fill: #262626" transform="translate(77.50375 237.026917) scale(0.11 -0.11)">
       <use xlink:href="#DejaVuSans-33"/>
       <use xlink:href="#DejaVuSans-36" x="63.623047"/>
       <use xlink:href="#DejaVuSans-30" x="127.246094"/>
      </g>
     </g>
    </g>
    <g id="ytick_5">
     <g id="line2d_11">
      <path d="M 108 186.56387 
L 777.6 186.56387 
" clip-path="url(#pa7a6375836)" style="fill: none; stroke: #ffffff; stroke-linecap: round"/>
     </g>
     <g id="text_12">
      <!-- 370 -->
      <g style="fill: #262626" transform="translate(77.50375 190.743011) scale(0.11 -0.11)">
       <defs>
        <path id="DejaVuSans-37" d="M 525 4666 
L 3525 4666 
L 3525 4397 
L 1831 0 
L 1172 0 
L 2766 4134 
L 525 4134 
L 525 4666 
z
" transform="scale(0.015625)"/>
       </defs>
       <use xlink:href="#DejaVuSans-33"/>
       <use xlink:href="#DejaVuSans-37" x="63.623047"/>
       <use xlink:href="#DejaVuSans-30" x="127.246094"/>
      </g>
     </g>
    </g>
    <g id="ytick_6">
     <g id="line2d_12">
      <path d="M 108 140.279963 
L 777.6 140.279963 
" clip-path="url(#pa7a6375836)" style="fill: none; stroke: #ffffff; stroke-linecap: round"/>
     </g>
     <g id="text_13">
      <!-- 380 -->
      <g style="fill: #262626" transform="translate(77.50375 144.459104) scale(0.11 -0.11)">
       <use xlink:href="#DejaVuSans-33"/>
       <use xlink:href="#DejaVuSans-38" x="63.623047"/>
       <use xlink:href="#DejaVuSans-30" x="127.246094"/>
      </g>
     </g>
    </g>
    <g id="ytick_7">
     <g id="line2d_13">
      <path d="M 108 93.996057 
L 777.6 93.996057 
" clip-path="url(#pa7a6375836)" style="fill: none; stroke: #ffffff; stroke-linecap: round"/>
     </g>
     <g id="text_14">
      <!-- 390 -->
      <g style="fill: #262626" transform="translate(77.50375 98.175198) scale(0.11 -0.11)">
       <defs>
        <path id="DejaVuSans-39" d="M 703 97 
L 703 672 
Q 941 559 1184 500 
Q 1428 441 1663 441 
Q 2288 441 2617 861 
Q 2947 1281 2994 2138 
Q 2813 1869 2534 1725 
Q 2256 1581 1919 1581 
Q 1219 1581 811 2004 
Q 403 2428 403 3163 
Q 403 3881 828 4315 
Q 1253 4750 1959 4750 
Q 2769 4750 3195 4129 
Q 3622 3509 3622 2328 
Q 3622 1225 3098 567 
Q 2575 -91 1691 -91 
Q 1453 -91 1209 -44 
Q 966 3 703 97 
z
M 1959 2075 
Q 2384 2075 2632 2365 
Q 2881 2656 2881 3163 
Q 2881 3666 2632 3958 
Q 2384 4250 1959 4250 
Q 1534 4250 1286 3958 
Q 1038 3666 1038 3163 
Q 1038 2656 1286 2365 
Q 1534 2075 1959 2075 
z
" transform="scale(0.015625)"/>
       </defs>
       <use xlink:href="#DejaVuSans-33"/>
       <use xlink:href="#DejaVuSans-39" x="63.623047"/>
       <use xlink:href="#DejaVuSans-30" x="127.246094"/>
      </g>
     </g>
    </g>
    <g id="text_15">
     <!-- Длина маршрута -->
     <g style="fill: #262626" transform="translate(70.800156 276.619375) rotate(-90) scale(0.13 -0.13)">
      <defs>
       <path id="DejaVuSans-414" d="M 1459 531 
L 3522 531 
L 3522 4134 
L 2006 4134 
L 2006 3472 
Q 2006 1913 1656 878 
Q 1584 666 1459 531 
z
M 538 531 
Q 956 728 1075 1103 
Q 1378 2066 1378 3784 
L 1378 4666 
L 4153 4666 
L 4153 531 
L 4684 531 
L 4684 -1003 
L 4153 -1003 
L 4153 0 
L 847 0 
L 847 -1003 
L 316 -1003 
L 316 531 
L 538 531 
z
" transform="scale(0.015625)"/>
       <path id="DejaVuSans-43d" d="M 581 3500 
L 1159 3500 
L 1159 2072 
L 3025 2072 
L 3025 3500 
L 3603 3500 
L 3603 0 
L 3025 0 
L 3025 1613 
L 1159 1613 
L 1159 0 
L 581 0 
L 581 3500 
z
" transform="scale(0.015625)"/>
       <path id="DejaVuSans-43c" d="M 581 3500 
L 1422 3500 
L 2416 1156 
L 3413 3500 
L 4247 3500 
L 4247 0 
L 3669 0 
L 3669 2950 
L 2703 672 
L 2128 672 
L 1159 2950 
L 1159 0 
L 581 0 
L 581 3500 
z
" transform="scale(0.015625)"/>
       <path id="DejaVuSans-448" d="M 3216 459 
L 4697 459 
L 4697 3500 
L 5275 3500 
L 5275 0 
L 581 0 
L 581 3500 
L 1159 3500 
L 1159 459 
L 2638 459 
L 2638 3500 
L 3216 3500 
L 3216 459 
z
" transform="scale(0.015625)"/>
       <path id="DejaVuSans-443" d="M 2059 -325 
Q 1816 -950 1584 -1140 
Q 1353 -1331 966 -1331 
L 506 -1331 
L 506 -850 
L 844 -850 
Q 1081 -850 1212 -737 
Q 1344 -625 1503 -206 
L 1606 56 
L 191 3500 
L 800 3500 
L 1894 763 
L 2988 3500 
L 3597 3500 
L 2059 -325 
z
" transform="scale(0.015625)"/>
      </defs>
      <use xlink:href="#DejaVuSans-414"/>
      <use xlink:href="#DejaVuSans-43b" x="78.125"/>
      <use xlink:href="#DejaVuSans-438" x="142.041016"/>
      <use xlink:href="#DejaVuSans-43d" x="207.03125"/>
      <use xlink:href="#DejaVuSans-430" x="272.412109"/>
      <use xlink:href="#DejaVuSans-20" x="333.691406"/>
      <use xlink:href="#DejaVuSans-43c" x="365.478516"/>
      <use xlink:href="#DejaVuSans-430" x="440.917969"/>
      <use xlink:href="#DejaVuSans-440" x="502.197266"/>
      <use xlink:href="#DejaVuSans-448" x="565.673828"/>
      <use xlink:href="#DejaVuSans-440" x="657.177734"/>
      <use xlink:href="#DejaVuSans-443" x="720.654297"/>
      <use xlink:href="#DejaVuSans-442" x="779.833984"/>
      <use xlink:href="#DejaVuSans-430" x="838.085938"/>
     </g>
    </g>
   </g>
   <g id="line2d_14">
    <path d="M 138.436364 123.692259 
L 144.585124 199.381754 
L 150.733884 199.381754 
L 156.882645 199.381754 
L 163.031405 200.101126 
L 169.180165 200.101126 
L 175.328926 200.101126 
L 181.477686 200.101126 
L 187.626446 200.101126 
L 193.775207 200.101126 
L 199.923967 200.880988 
L 206.072727 200.880988 
L 212.221488 200.880988 
L 218.370248 200.880988 
L 224.519008 200.880988 
L 230.667769 200.880988 
L 236.816529 207.946375 
L 242.965289 207.946375 
L 249.11405 207.946375 
L 255.26281 207.946375 
L 261.41157 207.946375 
L 267.560331 273.789733 
L 273.709091 273.789733 
L 279.857851 273.789733 
L 286.006612 273.789733 
L 292.155372 273.789733 
L 298.304132 273.789733 
L 304.452893 273.789733 
L 310.601653 273.789733 
L 316.750413 273.789733 
L 322.899174 273.789733 
L 329.047934 273.789733 
L 335.196694 273.789733 
L 341.345455 273.789733 
L 347.494215 273.789733 
L 353.642975 273.789733 
L 359.791736 273.789733 
L 365.940496 273.789733 
L 372.089256 273.789733 
L 378.238017 273.789733 
L 384.386777 273.789733 
L 390.535537 273.789733 
L 396.684298 273.789733 
L 402.833058 273.789733 
L 408.981818 273.789733 
L 415.130579 273.789733 
L 421.279339 273.789733 
L 427.428099 273.789733 
L 433.57686 273.789733 
L 439.72562 273.789733 
L 445.87438 273.789733 
L 452.02314 273.789733 
L 458.171901 273.789733 
L 464.320661 273.789733 
L 470.469421 273.789733 
L 476.618182 273.789733 
L 482.766942 273.789733 
L 488.915702 273.789733 
L 495.064463 273.789733 
L 501.213223 273.789733 
L 507.361983 273.789733 
L 513.510744 273.789733 
L 519.659504 273.789733 
L 525.808264 273.789733 
L 531.957025 273.789733 
L 538.105785 273.789733 
L 544.254545 273.789733 
L 550.403306 273.789733 
L 556.552066 273.789733 
L 562.700826 273.789733 
L 568.849587 273.789733 
L 574.998347 273.789733 
L 581.147107 369.36 
L 587.295868 369.36 
L 593.444628 369.36 
L 599.593388 369.36 
L 605.742149 369.36 
L 611.890909 369.36 
L 618.039669 369.36 
L 624.18843 369.36 
L 630.33719 369.36 
L 636.48595 369.36 
L 642.634711 369.36 
L 648.783471 369.36 
L 654.932231 369.36 
L 661.080992 369.36 
L 667.229752 369.36 
L 673.378512 369.36 
L 679.527273 369.36 
L 685.676033 369.36 
L 691.824793 369.36 
L 697.973554 369.36 
L 704.122314 369.36 
L 710.271074 369.36 
L 716.419835 369.36 
L 722.568595 369.36 
L 728.717355 369.36 
L 734.866116 369.36 
L 741.014876 369.36 
L 747.163636 369.36 
" clip-path="url(#pa7a6375836)" style="fill: none; stroke: #4c72b0; stroke-width: 1.5; stroke-linecap: round"/>
   </g>
   <g id="line2d_15">
    <path d="M 138.436364 214.942775 
L 144.585124 221.187076 
L 150.733884 221.187076 
L 156.882645 221.187076 
L 163.031405 247.304229 
L 169.180165 247.304229 
L 175.328926 328.234743 
L 181.477686 328.234743 
L 187.626446 328.234743 
L 193.775207 328.234743 
L 199.923967 328.234743 
L 206.072727 328.234743 
L 212.221488 328.234743 
L 218.370248 328.234743 
L 224.519008 328.234743 
L 230.667769 328.234743 
L 236.816529 328.234743 
L 242.965289 328.234743 
L 249.11405 328.234743 
L 255.26281 328.234743 
L 261.41157 328.234743 
L 267.560331 328.234743 
L 273.709091 328.234743 
L 279.857851 328.234743 
L 286.006612 328.234743 
L 292.155372 346.099268 
L 298.304132 346.099268 
L 304.452893 346.099268 
L 310.601653 346.099268 
L 316.750413 346.099268 
L 322.899174 346.099268 
L 329.047934 346.099268 
L 335.196694 346.099268 
L 341.345455 346.099268 
L 347.494215 346.099268 
L 353.642975 346.099268 
L 359.791736 369.36 
L 365.940496 369.36 
L 372.089256 369.36 
L 378.238017 369.36 
L 384.386777 369.36 
L 390.535537 369.36 
L 396.684298 369.36 
L 402.833058 369.36 
L 408.981818 369.36 
L 415.130579 369.36 
L 421.279339 369.36 
L 427.428099 369.36 
L 433.57686 369.36 
L 439.72562 369.36 
L 445.87438 369.36 
L 452.02314 369.36 
L 458.171901 369.36 
L 464.320661 369.36 
L 470.469421 369.36 
L 476.618182 369.36 
L 482.766942 369.36 
L 488.915702 369.36 
L 495.064463 369.36 
L 501.213223 369.36 
L 507.361983 369.36 
L 513.510744 369.36 
L 519.659504 369.36 
L 525.808264 369.36 
L 531.957025 369.36 
L 538.105785 369.36 
L 544.254545 369.36 
L 550.403306 369.36 
L 556.552066 369.36 
L 562.700826 369.36 
L 568.849587 369.36 
L 574.998347 369.36 
L 581.147107 369.36 
L 587.295868 369.36 
L 593.444628 369.36 
L 599.593388 369.36 
L 605.742149 369.36 
L 611.890909 369.36 
L 618.039669 369.36 
L 624.18843 369.36 
L 630.33719 369.36 
L 636.48595 369.36 
L 642.634711 369.36 
L 648.783471 369.36 
L 654.932231 369.36 
L 661.080992 369.36 
L 667.229752 369.36 
L 673.378512 369.36 
L 679.527273 369.36 
L 685.676033 369.36 
L 691.824793 369.36 
L 697.973554 369.36 
L 704.122314 369.36 
L 710.271074 369.36 
L 716.419835 369.36 
L 722.568595 369.36 
L 728.717355 369.36 
L 734.866116 369.36 
L 741.014876 369.36 
L 747.163636 369.36 
" clip-path="url(#pa7a6375836)" style="fill: none; stroke: #dd8452; stroke-width: 1.5; stroke-linecap: round"/>
   </g>
   <g id="line2d_16">
    <path d="M 138.436364 156.753194 
L 144.585124 234.899116 
L 150.733884 242.294645 
L 156.882645 242.294645 
L 163.031405 242.294645 
L 169.180165 242.294645 
L 175.328926 242.294645 
L 181.477686 242.294645 
L 187.626446 242.294645 
L 193.775207 242.294645 
L 199.923967 328.234743 
L 206.072727 328.234743 
L 212.221488 328.234743 
L 218.370248 328.234743 
L 224.519008 328.234743 
L 230.667769 328.234743 
L 236.816529 328.234743 
L 242.965289 328.234743 
L 249.11405 328.234743 
L 255.26281 328.234743 
L 261.41157 328.234743 
L 267.560331 328.234743 
L 273.709091 328.234743 
L 279.857851 328.234743 
L 286.006612 328.234743 
L 292.155372 328.234743 
L 298.304132 328.234743 
L 304.452893 328.234743 
L 310.601653 328.234743 
L 316.750413 328.234743 
L 322.899174 328.234743 
L 329.047934 328.234743 
L 335.196694 328.234743 
L 341.345455 328.234743 
L 347.494215 328.234743 
L 353.642975 328.234743 
L 359.791736 328.234743 
L 365.940496 328.234743 
L 372.089256 328.234743 
L 378.238017 328.234743 
L 384.386777 328.234743 
L 390.535537 328.234743 
L 396.684298 328.234743 
L 402.833058 328.234743 
L 408.981818 328.234743 
L 415.130579 328.234743 
L 421.279339 328.234743 
L 427.428099 328.234743 
L 433.57686 328.234743 
L 439.72562 328.234743 
L 445.87438 328.234743 
L 452.02314 328.234743 
L 458.171901 328.234743 
L 464.320661 328.234743 
L 470.469421 328.234743 
L 476.618182 328.234743 
L 482.766942 328.234743 
L 488.915702 328.234743 
L 495.064463 339.523568 
L 501.213223 339.523568 
L 507.361983 339.523568 
L 513.510744 339.523568 
L 519.659504 339.523568 
L 525.808264 339.523568 
L 531.957025 339.523568 
L 538.105785 339.523568 
L 544.254545 339.523568 
L 550.403306 339.523568 
L 556.552066 339.523568 
L 562.700826 339.523568 
L 568.849587 339.523568 
L 574.998347 339.523568 
L 581.147107 339.523568 
L 587.295868 339.523568 
L 593.444628 339.523568 
L 599.593388 339.523568 
L 605.742149 339.523568 
L 611.890909 339.523568 
L 618.039669 339.523568 
L 624.18843 339.523568 
L 630.33719 339.523568 
L 636.48595 339.523568 
L 642.634711 339.523568 
L 648.783471 339.523568 
L 654.932231 339.523568 
L 661.080992 339.523568 
L 667.229752 339.523568 
L 673.378512 339.523568 
L 679.527273 339.523568 
L 685.676033 339.523568 
L 691.824793 339.523568 
L 697.973554 339.523568 
L 704.122314 339.523568 
L 710.271074 339.523568 
L 716.419835 339.523568 
L 722.568595 339.523568 
L 728.717355 339.523568 
L 734.866116 339.523568 
L 741.014876 339.523568 
L 747.163636 339.523568 
" clip-path="url(#pa7a6375836)" style="fill: none; stroke: #55a868; stroke-width: 1.5; stroke-linecap: round"/>
   </g>
   <g id="line2d_17">
    <path d="M 138.436364 66.96 
L 144.585124 238.249535 
L 150.733884 238.249535 
L 156.882645 238.249535 
L 163.031405 238.249535 
L 169.180165 238.249535 
L 175.328926 238.249535 
L 181.477686 238.249535 
L 187.626446 238.249535 
L 193.775207 238.249535 
L 199.923967 238.249535 
L 206.072727 238.249535 
L 212.221488 238.249535 
L 218.370248 238.249535 
L 224.519008 238.249535 
L 230.667769 319.810449 
L 236.816529 319.810449 
L 242.965289 319.810449 
L 249.11405 319.810449 
L 255.26281 319.810449 
L 261.41157 319.810449 
L 267.560331 338.500886 
L 273.709091 338.500886 
L 279.857851 338.500886 
L 286.006612 338.500886 
L 292.155372 338.500886 
L 298.304132 338.500886 
L 304.452893 338.500886 
L 310.601653 338.500886 
L 316.750413 338.500886 
L 322.899174 338.500886 
L 329.047934 338.500886 
L 335.196694 338.500886 
L 341.345455 338.500886 
L 347.494215 338.500886 
L 353.642975 338.500886 
L 359.791736 338.500886 
L 365.940496 338.500886 
L 372.089256 338.500886 
L 378.238017 338.500886 
L 384.386777 338.500886 
L 390.535537 338.500886 
L 396.684298 338.500886 
L 402.833058 338.500886 
L 408.981818 338.500886 
L 415.130579 338.500886 
L 421.279339 338.500886 
L 427.428099 338.500886 
L 433.57686 338.500886 
L 439.72562 338.500886 
L 445.87438 338.500886 
L 452.02314 338.500886 
L 458.171901 338.500886 
L 464.320661 338.500886 
L 470.469421 338.500886 
L 476.618182 338.500886 
L 482.766942 338.500886 
L 488.915702 338.500886 
L 495.064463 338.500886 
L 501.213223 338.500886 
L 507.361983 338.500886 
L 513.510744 338.500886 
L 519.659504 338.500886 
L 525.808264 338.500886 
L 531.957025 338.500886 
L 538.105785 338.500886 
L 544.254545 338.500886 
L 550.403306 338.500886 
L 556.552066 338.500886 
L 562.700826 338.500886 
L 568.849587 338.500886 
L 574.998347 338.500886 
L 581.147107 338.500886 
L 587.295868 338.500886 
L 593.444628 338.500886 
L 599.593388 338.500886 
L 605.742149 338.500886 
L 611.890909 338.500886 
L 618.039669 338.500886 
L 624.18843 338.500886 
L 630.33719 338.500886 
L 636.48595 338.500886 
L 642.634711 338.500886 
L 648.783471 338.500886 
L 654.932231 338.500886 
L 661.080992 339.523568 
L 667.229752 339.523568 
L 673.378512 339.523568 
L 679.527273 339.523568 
L 685.676033 339.523568 
L 691.824793 339.523568 
L 697.973554 339.523568 
L 704.122314 339.523568 
L 710.271074 339.523568 
L 716.419835 339.523568 
L 722.568595 339.523568 
L 728.717355 339.523568 
L 734.866116 339.523568 
L 741.014876 339.523568 
L 747.163636 339.523568 
" clip-path="url(#pa7a6375836)" style="fill: none; stroke: #c44e52; stroke-width: 1.5; stroke-linecap: round"/>
   </g>
   <g id="line2d_18">
    <path d="M 138.436364 369.36 
L 144.585124 369.36 
L 150.733884 369.36 
L 156.882645 369.36 
L 163.031405 369.36 
L 169.180165 369.36 
L 175.328926 369.36 
L 181.477686 369.36 
L 187.626446 369.36 
L 193.775207 369.36 
L 199.923967 369.36 
L 206.072727 369.36 
L 212.221488 369.36 
L 218.370248 369.36 
L 224.519008 369.36 
L 230.667769 369.36 
L 236.816529 369.36 
L 242.965289 369.36 
L 249.11405 369.36 
L 255.26281 369.36 
L 261.41157 369.36 
L 267.560331 369.36 
L 273.709091 369.36 
L 279.857851 369.36 
L 286.006612 369.36 
L 292.155372 369.36 
L 298.304132 369.36 
L 304.452893 369.36 
L 310.601653 369.36 
L 316.750413 369.36 
L 322.899174 369.36 
L 329.047934 369.36 
L 335.196694 369.36 
L 341.345455 369.36 
L 347.494215 369.36 
L 353.642975 369.36 
L 359.791736 369.36 
L 365.940496 369.36 
L 372.089256 369.36 
L 378.238017 369.36 
L 384.386777 369.36 
L 390.535537 369.36 
L 396.684298 369.36 
L 402.833058 369.36 
L 408.981818 369.36 
L 415.130579 369.36 
L 421.279339 369.36 
L 427.428099 369.36 
L 433.57686 369.36 
L 439.72562 369.36 
L 445.87438 369.36 
L 452.02314 369.36 
L 458.171901 369.36 
L 464.320661 369.36 
L 470.469421 369.36 
L 476.618182 369.36 
L 482.766942 369.36 
L 488.915702 369.36 
L 495.064463 369.36 
L 501.213223 369.36 
L 507.361983 369.36 
L 513.510744 369.36 
L 519.659504 369.36 
L 525.808264 369.36 
L 531.957025 369.36 
L 538.105785 369.36 
L 544.254545 369.36 
L 550.403306 369.36 
L 556.552066 369.36 
L 562.700826 369.36 
L 568.849587 369.36 
L 574.998347 369.36 
L 581.147107 369.36 
L 587.295868 369.36 
L 593.444628 369.36 
L 599.593388 369.36 
L 605.742149 369.36 
L 611.890909 369.36 
L 618.039669 369.36 
L 624.18843 369.36 
L 630.33719 369.36 
L 636.48595 369.36 
L 642.634711 369.36 
L 648.783471 369.36 
L 654.932231 369.36 
L 661.080992 369.36 
L 667.229752 369.36 
L 673.378512 369.36 
L 679.527273 369.36 
L 685.676033 369.36 
L 691.824793 369.36 
L 697.973554 369.36 
L 704.122314 369.36 
L 710.271074 369.36 
L 716.419835 369.36 
L 722.568595 369.36 
L 728.717355 369.36 
L 734.866116 369.36 
L 741.014876 369.36 
L 747.163636 369.36 
" clip-path="url(#pa7a6375836)" style="fill: none; stroke-dasharray: 3.7,1.6; stroke-dashoffset: 0; stroke: #008000"/>
   </g>
   <g id="patch_3">
    <path d="M 108 384.48 
L 108 51.84 
" style="fill: none; stroke: #ffffff; stroke-width: 1.25; stroke-linejoin: miter; stroke-linecap: square"/>
   </g>
   <g id="patch_4">
    <path d="M 777.6 384.48 
L 777.6 51.84 
" style="fill: none; stroke: #ffffff; stroke-width: 1.25; stroke-linejoin: miter; stroke-linecap: square"/>
   </g>
   <g id="patch_5">
    <path d="M 108 384.48 
L 777.6 384.48 
" style="fill: none; stroke: #ffffff; stroke-width: 1.25; stroke-linejoin: miter; stroke-linecap: square"/>
   </g>
   <g id="patch_6">
    <path d="M 108 51.84 
L 777.6 51.84 
" style="fill: none; stroke: #ffffff; stroke-width: 1.25; stroke-linejoin: miter; stroke-linecap: square"/>
   </g>
   <g id="text_16">
    <!-- Длина найденного маршрута алгоритмом Ant System (16 городов) -->
    <g style="fill: #262626" transform="translate(160.19125 27.9235) scale(0.16 -0.16)">
     <defs>
      <path id="DejaVuSans-434" d="M 1384 459 
L 3053 459 
L 3053 3041 
L 1844 3041 
L 1844 2603 
Q 1844 1316 1475 628 
L 1384 459 
z
M 550 459 
Q 834 584 959 850 
Q 1266 1509 1266 2838 
L 1266 3500 
L 3631 3500 
L 3631 459 
L 4091 459 
L 4091 -884 
L 3631 -884 
L 3631 0 
L 794 0 
L 794 -884 
L 334 -884 
L 334 459 
L 550 459 
z
" transform="scale(0.015625)"/>
      <path id="DejaVuSans-433" d="M 581 0 
L 581 3500 
L 3050 3500 
L 3050 3041 
L 1159 3041 
L 1159 0 
L 581 0 
z
" transform="scale(0.015625)"/>
      <path id="DejaVuSans-41" d="M 2188 4044 
L 1331 1722 
L 3047 1722 
L 2188 4044 
z
M 1831 4666 
L 2547 4666 
L 4325 0 
L 3669 0 
L 3244 1197 
L 1141 1197 
L 716 0 
L 50 0 
L 1831 4666 
z
" transform="scale(0.015625)"/>
      <path id="DejaVuSans-6e" d="M 3513 2113 
L 3513 0 
L 2938 0 
L 2938 2094 
Q 2938 2591 2744 2837 
Q 2550 3084 2163 3084 
Q 1697 3084 1428 2787 
Q 1159 2491 1159 1978 
L 1159 0 
L 581 0 
L 581 3500 
L 1159 3500 
L 1159 2956 
Q 1366 3272 1645 3428 
Q 1925 3584 2291 3584 
Q 2894 3584 3203 3211 
Q 3513 2838 3513 2113 
z
" transform="scale(0.015625)"/>
      <path id="DejaVuSans-74" d="M 1172 4494 
L 1172 3500 
L 2356 3500 
L 2356 3053 
L 1172 3053 
L 1172 1153 
Q 1172 725 1289 603 
Q 1406 481 1766 481 
L 2356 481 
L 2356 0 
L 1766 0 
Q 1100 0 847 248 
Q 594 497 594 1153 
L 594 3053 
L 172 3053 
L 172 3500 
L 594 3500 
L 594 4494 
L 1172 4494 
z
" transform="scale(0.015625)"/>
      <path id="DejaVuSans-53" d="M 3425 4513 
L 3425 3897 
Q 3066 4069 2747 4153 
Q 2428 4238 2131 4238 
Q 1616 4238 1336 4038 
Q 1056 3838 1056 3469 
Q 1056 3159 1242 3001 
Q 1428 2844 1947 2747 
L 2328 2669 
Q 3034 2534 3370 2195 
Q 3706 1856 3706 1288 
Q 3706 609 3251 259 
Q 2797 -91 1919 -91 
Q 1588 -91 1214 -16 
Q 841 59 441 206 
L 441 856 
Q 825 641 1194 531 
Q 1563 422 1919 422 
Q 2459 422 2753 634 
Q 3047 847 3047 1241 
Q 3047 1584 2836 1778 
Q 2625 1972 2144 2069 
L 1759 2144 
Q 1053 2284 737 2584 
Q 422 2884 422 3419 
Q 422 4038 858 4394 
Q 1294 4750 2059 4750 
Q 2388 4750 2728 4690 
Q 3069 4631 3425 4513 
z
" transform="scale(0.015625)"/>
      <path id="DejaVuSans-79" d="M 2059 -325 
Q 1816 -950 1584 -1140 
Q 1353 -1331 966 -1331 
L 506 -1331 
L 506 -850 
L 844 -850 
Q 1081 -850 1212 -737 
Q 1344 -625 1503 -206 
L 1606 56 
L 191 3500 
L 800 3500 
L 1894 763 
L 2988 3500 
L 3597 3500 
L 2059 -325 
z
" transform="scale(0.015625)"/>
      <path id="DejaVuSans-73" d="M 2834 3397 
L 2834 2853 
Q 2591 2978 2328 3040 
Q 2066 3103 1784 3103 
Q 1356 3103 1142 2972 
Q 928 2841 928 2578 
Q 928 2378 1081 2264 
Q 1234 2150 1697 2047 
L 1894 2003 
Q 2506 1872 2764 1633 
Q 3022 1394 3022 966 
Q 3022 478 2636 193 
Q 2250 -91 1575 -91 
Q 1294 -91 989 -36 
Q 684 19 347 128 
L 347 722 
Q 666 556 975 473 
Q 1284 391 1588 391 
Q 1994 391 2212 530 
Q 2431 669 2431 922 
Q 2431 1156 2273 1281 
Q 2116 1406 1581 1522 
L 1381 1569 
Q 847 1681 609 1914 
Q 372 2147 372 2553 
Q 372 3047 722 3315 
Q 1072 3584 1716 3584 
Q 2034 3584 2315 3537 
Q 2597 3491 2834 3397 
z
" transform="scale(0.015625)"/>
      <path id="DejaVuSans-65" d="M 3597 1894 
L 3597 1613 
L 953 1613 
Q 991 1019 1311 708 
Q 1631 397 2203 397 
Q 2534 397 2845 478 
Q 3156 559 3463 722 
L 3463 178 
Q 3153 47 2828 -22 
Q 2503 -91 2169 -91 
Q 1331 -91 842 396 
Q 353 884 353 1716 
Q 353 2575 817 3079 
Q 1281 3584 2069 3584 
Q 2775 3584 3186 3129 
Q 3597 2675 3597 1894 
z
M 3022 2063 
Q 3016 2534 2758 2815 
Q 2500 3097 2075 3097 
Q 1594 3097 1305 2825 
Q 1016 2553 972 2059 
L 3022 2063 
z
" transform="scale(0.015625)"/>
      <path id="DejaVuSans-6d" d="M 3328 2828 
Q 3544 3216 3844 3400 
Q 4144 3584 4550 3584 
Q 5097 3584 5394 3201 
Q 5691 2819 5691 2113 
L 5691 0 
L 5113 0 
L 5113 2094 
Q 5113 2597 4934 2840 
Q 4756 3084 4391 3084 
Q 3944 3084 3684 2787 
Q 3425 2491 3425 1978 
L 3425 0 
L 2847 0 
L 2847 2094 
Q 2847 2600 2669 2842 
Q 2491 3084 2119 3084 
Q 1678 3084 1418 2786 
Q 1159 2488 1159 1978 
L 1159 0 
L 581 0 
L 581 3500 
L 1159 3500 
L 1159 2956 
Q 1356 3278 1631 3431 
Q 1906 3584 2284 3584 
Q 2666 3584 2933 3390 
Q 3200 3197 3328 2828 
z
" transform="scale(0.015625)"/>
      <path id="DejaVuSans-28" d="M 1984 4856 
Q 1566 4138 1362 3434 
Q 1159 2731 1159 2009 
Q 1159 1288 1364 580 
Q 1569 -128 1984 -844 
L 1484 -844 
Q 1016 -109 783 600 
Q 550 1309 550 2009 
Q 550 2706 781 3412 
Q 1013 4119 1484 4856 
L 1984 4856 
z
" transform="scale(0.015625)"/>
      <path id="DejaVuSans-29" d="M 513 4856 
L 1013 4856 
Q 1481 4119 1714 3412 
Q 1947 2706 1947 2009 
Q 1947 1309 1714 600 
Q 1481 -109 1013 -844 
L 513 -844 
Q 928 -128 1133 580 
Q 1338 1288 1338 2009 
Q 1338 2731 1133 3434 
Q 928 4138 513 4856 
z
" transform="scale(0.015625)"/>
     </defs>
     <use xlink:href="#DejaVuSans-414"/>
     <use xlink:href="#DejaVuSans-43b" x="78.125"/>
     <use xlink:href="#DejaVuSans-438" x="142.041016"/>
     <use xlink:href="#DejaVuSans-43d" x="207.03125"/>
     <use xlink:href="#DejaVuSans-430" x="272.412109"/>
     <use xlink:href="#DejaVuSans-20" x="333.691406"/>
     <use xlink:href="#DejaVuSans-43d" x="365.478516"/>
     <use xlink:href="#DejaVuSans-430" x="430.859375"/>
     <use xlink:href="#DejaVuSans-439" x="492.138672"/>
     <use xlink:href="#DejaVuSans-434" x="557.128906"/>
     <use xlink:href="#DejaVuSans-435" x="626.269531"/>
     <use xlink:href="#DejaVuSans-43d" x="687.792969"/>
     <use xlink:href="#DejaVuSans-43d" x="753.173828"/>
     <use xlink:href="#DejaVuSans-43e" x="818.554688"/>
     <use xlink:href="#DejaVuSans-433" x="879.736328"/>
     <use xlink:href="#DejaVuSans-43e" x="932.275391"/>
     <use xlink:href="#DejaVuSans-20" x="993.457031"/>
     <use xlink:href="#DejaVuSans-43c" x="1025.244141"/>
     <use xlink:href="#DejaVuSans-430" x="1100.683594"/>
     <use xlink:href="#DejaVuSans-440" x="1161.962891"/>
     <use xlink:href="#DejaVuSans-448" x="1225.439453"/>
     <use xlink:href="#DejaVuSans-440" x="1316.943359"/>
     <use xlink:href="#DejaVuSans-443" x="1380.419922"/>
     <use xlink:href="#DejaVuSans-442" x="1439.599609"/>
     <use xlink:href="#DejaVuSans-430" x="1497.851562"/>
     <use xlink:href="#DejaVuSans-20" x="1559.130859"/>
     <use xlink:href="#DejaVuSans-430" x="1590.917969"/>
     <use xlink:href="#DejaVuSans-43b" x="1652.197266"/>
     <use xlink:href="#DejaVuSans-433" x="1716.113281"/>
     <use xlink:href="#DejaVuSans-43e" x="1768.652344"/>
     <use xlink:href="#DejaVuSans-440" x="1829.833984"/>
     <use xlink:href="#DejaVuSans-438" x="1893.310547"/>
     <use xlink:href="#DejaVuSans-442" x="1958.300781"/>
     <use xlink:href="#DejaVuSans-43c" x="2016.552734"/>
     <use xlink:href="#DejaVuSans-43e" x="2091.992188"/>
     <use xlink:href="#DejaVuSans-43c" x="2153.173828"/>
     <use xlink:href="#DejaVuSans-20" x="2228.613281"/>
     <use xlink:href="#DejaVuSans-41" x="2260.400391"/>
     <use xlink:href="#DejaVuSans-6e" x="2328.808594"/>
     <use xlink:href="#DejaVuSans-74" x="2392.1875"/>
     <use xlink:href="#DejaVuSans-20" x="2431.396484"/>
     <use xlink:href="#DejaVuSans-53" x="2463.183594"/>
     <use xlink:href="#DejaVuSans-79" x="2526.660156"/>
     <use xlink:href="#DejaVuSans-73" x="2585.839844"/>
     <use xlink:href="#DejaVuSans-74" x="2637.939453"/>
     <use xlink:href="#DejaVuSans-65" x="2677.148438"/>
     <use xlink:href="#DejaVuSans-6d" x="2738.671875"/>
     <use xlink:href="#DejaVuSans-20" x="2836.083984"/>
     <use xlink:href="#DejaVuSans-28" x="2867.871094"/>
     <use xlink:href="#DejaVuSans-31" x="2906.884766"/>
     <use xlink:href="#DejaVuSans-36" x="2970.507812"/>
     <use xlink:href="#DejaVuSans-20" x="3034.130859"/>
     <use xlink:href="#DejaVuSans-433" x="3065.917969"/>
     <use xlink:href="#DejaVuSans-43e" x="3118.457031"/>
     <use xlink:href="#DejaVuSans-440" x="3179.638672"/>
     <use xlink:href="#DejaVuSans-43e" x="3243.115234"/>
     <use xlink:href="#DejaVuSans-434" x="3304.296875"/>
     <use xlink:href="#DejaVuSans-43e" x="3373.4375"/>
     <use xlink:href="#DejaVuSans-432" x="3434.619141"/>
     <use xlink:href="#DejaVuSans-29" x="3493.554688"/>
    </g>
    <!-- в зависимости от количества муравьев -->
    <g style="fill: #262626" transform="translate(276.32125 45.84) scale(0.16 -0.16)">
     <defs>
      <path id="DejaVuSans-437" d="M 2206 1888 
Q 2594 1813 2809 1584 
Q 3025 1356 3025 1019 
Q 3025 478 2622 193 
Q 2219 -91 1475 -91 
Q 1225 -91 961 -47 
Q 697 -3 416 84 
L 416 619 
Q 638 503 903 445 
Q 1169 388 1459 388 
Q 1931 388 2195 563 
Q 2459 738 2459 1019 
Q 2459 1294 2225 1461 
Q 1991 1628 1563 1628 
L 1100 1628 
L 1100 2103 
L 1584 2103 
Q 1947 2103 2158 2242 
Q 2369 2381 2369 2600 
Q 2369 2800 2151 2944 
Q 1934 3088 1563 3088 
Q 1341 3088 1089 3047 
Q 838 3006 534 2916 
L 534 3438 
Q 841 3513 1106 3550 
Q 1372 3588 1609 3588 
Q 2222 3588 2576 3342 
Q 2931 3097 2931 2656 
Q 2931 2366 2743 2164 
Q 2556 1963 2206 1888 
z
" transform="scale(0.015625)"/>
      <path id="DejaVuSans-43a" d="M 581 3500 
L 1153 3500 
L 1153 1856 
L 2775 3500 
L 3481 3500 
L 2144 2147 
L 3653 0 
L 3009 0 
L 1769 1766 
L 1153 1141 
L 1153 0 
L 581 0 
L 581 3500 
z
" transform="scale(0.015625)"/>
      <path id="DejaVuSans-44c" d="M 2781 1038 
Q 2781 1319 2576 1466 
Q 2372 1613 1978 1613 
L 1159 1613 
L 1159 459 
L 1978 459 
Q 2372 459 2576 607 
Q 2781 756 2781 1038 
z
M 581 3500 
L 1159 3500 
L 1159 2072 
L 2003 2072 
Q 2672 2072 3033 1817 
Q 3394 1563 3394 1038 
Q 3394 513 3033 256 
Q 2672 0 2003 0 
L 581 0 
L 581 3500 
z
" transform="scale(0.015625)"/>
     </defs>
     <use xlink:href="#DejaVuSans-432"/>
     <use xlink:href="#DejaVuSans-20" x="58.935547"/>
     <use xlink:href="#DejaVuSans-437" x="90.722656"/>
     <use xlink:href="#DejaVuSans-430" x="143.896484"/>
     <use xlink:href="#DejaVuSans-432" x="205.175781"/>
     <use xlink:href="#DejaVuSans-438" x="264.111328"/>
     <use xlink:href="#DejaVuSans-441" x="329.101562"/>
     <use xlink:href="#DejaVuSans-438" x="384.082031"/>
     <use xlink:href="#DejaVuSans-43c" x="449.072266"/>
     <use xlink:href="#DejaVuSans-43e" x="524.511719"/>
     <use xlink:href="#DejaVuSans-441" x="585.693359"/>
     <use xlink:href="#DejaVuSans-442" x="640.673828"/>
     <use xlink:href="#DejaVuSans-438" x="698.925781"/>
     <use xlink:href="#DejaVuSans-20" x="763.916016"/>
     <use xlink:href="#DejaVuSans-43e" x="795.703125"/>
     <use xlink:href="#DejaVuSans-442" x="856.884766"/>
     <use xlink:href="#DejaVuSans-20" x="915.136719"/>
     <use xlink:href="#DejaVuSans-43a" x="946.923828"/>
     <use xlink:href="#DejaVuSans-43e" x="1007.324219"/>
     <use xlink:href="#DejaVuSans-43b" x="1068.505859"/>
     <use xlink:href="#DejaVuSans-438" x="1132.421875"/>
     <use xlink:href="#DejaVuSans-447" x="1197.412109"/>
     <use xlink:href="#DejaVuSans-435" x="1256.494141"/>
     <use xlink:href="#DejaVuSans-441" x="1318.017578"/>
     <use xlink:href="#DejaVuSans-442" x="1372.998047"/>
     <use xlink:href="#DejaVuSans-432" x="1431.25"/>
     <use xlink:href="#DejaVuSans-430" x="1490.185547"/>
     <use xlink:href="#DejaVuSans-20" x="1551.464844"/>
     <use xlink:href="#DejaVuSans-43c" x="1583.251953"/>
     <use xlink:href="#DejaVuSans-443" x="1658.691406"/>
     <use xlink:href="#DejaVuSans-440" x="1717.871094"/>
     <use xlink:href="#DejaVuSans-430" x="1781.347656"/>
     <use xlink:href="#DejaVuSans-432" x="1842.626953"/>
     <use xlink:href="#DejaVuSans-44c" x="1901.5625"/>
     <use xlink:href="#DejaVuSans-435" x="1960.498047"/>
     <use xlink:href="#DejaVuSans-432" x="2022.021484"/>
    </g>
   </g>
   <g id="legend_1">
    <g id="patch_7">
     <path d="M 606.524219 141.369688 
L 769.9 141.369688 
Q 772.1 141.369688 772.1 139.169688 
L 772.1 59.54 
Q 772.1 57.34 769.9 57.34 
L 606.524219 57.34 
Q 604.324219 57.34 604.324219 59.54 
L 604.324219 139.169688 
Q 604.324219 141.369688 606.524219 141.369688 
z
" style="fill: #eaeaf2; opacity: 0.8; stroke: #cccccc; stroke-linejoin: miter"/>
    </g>
    <g id="line2d_19">
     <path d="M 608.724219 66.248281 
L 619.724219 66.248281 
L 630.724219 66.248281 
" style="fill: none; stroke: #4c72b0; stroke-width: 1.5; stroke-linecap: round"/>
    </g>
    <g id="text_17">
     <!-- 10 муравьев -->
     <g style="fill: #262626" transform="translate(639.524219 70.098281) scale(0.11 -0.11)">
      <use xlink:href="#DejaVuSans-31"/>
      <use xlink:href="#DejaVuSans-30" x="63.623047"/>
      <use xlink:href="#DejaVuSans-20" x="127.246094"/>
      <use xlink:href="#DejaVuSans-43c" x="159.033203"/>
      <use xlink:href="#DejaVuSans-443" x="234.472656"/>
      <use xlink:href="#DejaVuSans-440" x="293.652344"/>
      <use xlink:href="#DejaVuSans-430" x="357.128906"/>
      <use xlink:href="#DejaVuSans-432" x="418.408203"/>
      <use xlink:href="#DejaVuSans-44c" x="477.34375"/>
      <use xlink:href="#DejaVuSans-435" x="536.279297"/>
      <use xlink:href="#DejaVuSans-432" x="597.802734"/>
     </g>
    </g>
    <g id="line2d_20">
     <path d="M 608.724219 82.394219 
L 619.724219 82.394219 
L 630.724219 82.394219 
" style="fill: none; stroke: #dd8452; stroke-width: 1.5; stroke-linecap: round"/>
    </g>
    <g id="text_18">
     <!-- 15 муравьев -->
     <g style="fill: #262626" transform="translate(639.524219 86.244219) scale(0.11 -0.11)">
      <use xlink:href="#DejaVuSans-31"/>
      <use xlink:href="#DejaVuSans-35" x="63.623047"/>
      <use xlink:href="#DejaVuSans-20" x="127.246094"/>
      <use xlink:href="#DejaVuSans-43c" x="159.033203"/>
      <use xlink:href="#DejaVuSans-443" x="234.472656"/>
      <use xlink:href="#DejaVuSans-440" x="293.652344"/>
      <use xlink:href="#DejaVuSans-430" x="357.128906"/>
      <use xlink:href="#DejaVuSans-432" x="418.408203"/>
      <use xlink:href="#DejaVuSans-44c" x="477.34375"/>
      <use xlink:href="#DejaVuSans-435" x="536.279297"/>
      <use xlink:href="#DejaVuSans-432" x="597.802734"/>
     </g>
    </g>
    <g id="line2d_21">
     <path d="M 608.724219 98.540156 
L 619.724219 98.540156 
L 630.724219 98.540156 
" style="fill: none; stroke: #55a868; stroke-width: 1.5; stroke-linecap: round"/>
    </g>
    <g id="text_19">
     <!-- 16 муравьев -->
     <g style="fill: #262626" transform="translate(639.524219 102.390156) scale(0.11 -0.11)">
      <use xlink:href="#DejaVuSans-31"/>
      <use xlink:href="#DejaVuSans-36" x="63.623047"/>
      <use xlink:href="#DejaVuSans-20" x="127.246094"/>
      <use xlink:href="#DejaVuSans-43c" x="159.033203"/>
      <use xlink:href="#DejaVuSans-443" x="234.472656"/>
      <use xlink:href="#DejaVuSans-440" x="293.652344"/>
      <use xlink:href="#DejaVuSans-430" x="357.128906"/>
      <use xlink:href="#DejaVuSans-432" x="418.408203"/>
      <use xlink:href="#DejaVuSans-44c" x="477.34375"/>
      <use xlink:href="#DejaVuSans-435" x="536.279297"/>
      <use xlink:href="#DejaVuSans-432" x="597.802734"/>
     </g>
    </g>
    <g id="line2d_22">
     <path d="M 608.724219 114.686094 
L 619.724219 114.686094 
L 630.724219 114.686094 
" style="fill: none; stroke: #c44e52; stroke-width: 1.5; stroke-linecap: round"/>
    </g>
    <g id="text_20">
     <!-- 18 муравьев -->
     <g style="fill: #262626" transform="translate(639.524219 118.536094) scale(0.11 -0.11)">
      <use xlink:href="#DejaVuSans-31"/>
      <use xlink:href="#DejaVuSans-38" x="63.623047"/>
      <use xlink:href="#DejaVuSans-20" x="127.246094"/>
      <use xlink:href="#DejaVuSans-43c" x="159.033203"/>
      <use xlink:href="#DejaVuSans-443" x="234.472656"/>
      <use xlink:href="#DejaVuSans-440" x="293.652344"/>
      <use xlink:href="#DejaVuSans-430" x="357.128906"/>
      <use xlink:href="#DejaVuSans-432" x="418.408203"/>
      <use xlink:href="#DejaVuSans-44c" x="477.34375"/>
      <use xlink:href="#DejaVuSans-435" x="536.279297"/>
      <use xlink:href="#DejaVuSans-432" x="597.802734"/>
     </g>
    </g>
    <g id="line2d_23">
     <path d="M 608.724219 130.832031 
L 619.724219 130.832031 
L 630.724219 130.832031 
" style="fill: none; stroke-dasharray: 3.7,1.6; stroke-dashoffset: 0; stroke: #008000"/>
    </g>
    <g id="text_21">
     <!-- Кратчайший маршрут -->
     <g style="fill: #262626" transform="translate(639.524219 134.682031) scale(0.11 -0.11)">
      <use xlink:href="#DejaVuSans-41a"/>
      <use xlink:href="#DejaVuSans-440" x="70.996094"/>
      <use xlink:href="#DejaVuSans-430" x="134.472656"/>
      <use xlink:href="#DejaVuSans-442" x="195.751953"/>
      <use xlink:href="#DejaVuSans-447" x="254.003906"/>
      <use xlink:href="#DejaVuSans-430" x="313.085938"/>
      <use xlink:href="#DejaVuSans-439" x="374.365234"/>
      <use xlink:href="#DejaVuSans-448" x="439.355469"/>
      <use xlink:href="#DejaVuSans-438" x="530.859375"/>
      <use xlink:href="#DejaVuSans-439" x="595.849609"/>
      <use xlink:href="#DejaVuSans-20" x="660.839844"/>
      <use xlink:href="#DejaVuSans-43c" x="692.626953"/>
      <use xlink:href="#DejaVuSans-430" x="768.066406"/>
      <use xlink:href="#DejaVuSans-440" x="829.345703"/>
      <use xlink:href="#DejaVuSans-448" x="892.822266"/>
      <use xlink:href="#DejaVuSans-440" x="984.326172"/>
      <use xlink:href="#DejaVuSans-443" x="1047.802734"/>
      <use xlink:href="#DejaVuSans-442" x="1106.982422"/>
     </g>
    </g>
   </g>
  </g>
 </g>
 <defs>
  <clipPath id="pa7a6375836">
   <rect x="108" y="51.84" width="669.6" height="332.64"/>
  </clipPath>
 </defs>
</svg>
