<?xml version="1.0" encoding="utf-8" standalone="no"?>
<!DOCTYPE svg PUBLIC "-//W3C//DTD SVG 1.1//EN"
  "http://www.w3.org/Graphics/SVG/1.1/DTD/svg11.dtd">
<svg xmlns:xlink="http://www.w3.org/1999/xlink" width="864pt" height="432pt" viewBox="0 0 864 432" xmlns="http://www.w3.org/2000/svg" version="1.1">
 <metadata>
  <rdf:RDF xmlns:dc="http://purl.org/dc/elements/1.1/" xmlns:cc="http://creativecommons.org/ns#" xmlns:rdf="http://www.w3.org/1999/02/22-rdf-syntax-ns#">
   <cc:Work>
    <dc:type rdf:resource="http://purl.org/dc/dcmitype/StillImage"/>
    <dc:date>2023-01-16T19:38:46.552001</dc:date>
    <dc:format>image/svg+xml</dc:format>
    <dc:creator>
     <cc:Agent>
      <dc:title>Matplotlib v3.6.2, https://matplotlib.org/</dc:title>
     </cc:Agent>
    </dc:creator>
   </cc:Work>
  </rdf:RDF>
 </metadata>
 <defs>
  <style type="text/css">*{stroke-linejoin: round; stroke-linecap: butt}</style>
 </defs>
 <g id="figure_1">
  <g id="patch_1">
   <path d="M 0 432 
L 864 432 
L 864 0 
L 0 0 
z
" style="fill: #ffffff"/>
  </g>
  <g id="axes_1">
   <g id="patch_2">
    <path d="M 108 384.48 
L 777.6 384.48 
L 777.6 51.84 
L 108 51.84 
z
" style="fill: #eaeaf2"/>
   </g>
   <g id="matplotlib.axis_1">
    <g id="xtick_1">
     <g id="line2d_1">
      <path d="M 132.287603 384.48 
L 132.287603 51.84 
" clip-path="url(#p87531db910)" style="fill: none; stroke: #ffffff; stroke-linecap: round"/>
     </g>
     <g id="text_1">
      <!-- 0 -->
      <g style="fill: #262626" transform="translate(128.788228 402.338281) scale(0.11 -0.11)">
       <defs>
        <path id="DejaVuSans-30" d="M 2034 4250 
Q 1547 4250 1301 3770 
Q 1056 3291 1056 2328 
Q 1056 1369 1301 889 
Q 1547 409 2034 409 
Q 2525 409 2770 889 
Q 3016 1369 3016 2328 
Q 3016 3291 2770 3770 
Q 2525 4250 2034 4250 
z
M 2034 4750 
Q 2819 4750 3233 4129 
Q 3647 3509 3647 2328 
Q 3647 1150 3233 529 
Q 2819 -91 2034 -91 
Q 1250 -91 836 529 
Q 422 1150 422 2328 
Q 422 3509 836 4129 
Q 1250 4750 2034 4750 
z
" transform="scale(0.015625)"/>
       </defs>
       <use xlink:href="#DejaVuSans-30"/>
      </g>
     </g>
    </g>
    <g id="xtick_2">
     <g id="line2d_2">
      <path d="M 255.26281 384.48 
L 255.26281 51.84 
" clip-path="url(#p87531db910)" style="fill: none; stroke: #ffffff; stroke-linecap: round"/>
     </g>
     <g id="text_2">
      <!-- 20 -->
      <g style="fill: #262626" transform="translate(248.26406 402.338281) scale(0.11 -0.11)">
       <defs>
        <path id="DejaVuSans-32" d="M 1228 531 
L 3431 531 
L 3431 0 
L 469 0 
L 469 531 
Q 828 903 1448 1529 
Q 2069 2156 2228 2338 
Q 2531 2678 2651 2914 
Q 2772 3150 2772 3378 
Q 2772 3750 2511 3984 
Q 2250 4219 1831 4219 
Q 1534 4219 1204 4116 
Q 875 4013 500 3803 
L 500 4441 
Q 881 4594 1212 4672 
Q 1544 4750 1819 4750 
Q 2544 4750 2975 4387 
Q 3406 4025 3406 3419 
Q 3406 3131 3298 2873 
Q 3191 2616 2906 2266 
Q 2828 2175 2409 1742 
Q 1991 1309 1228 531 
z
" transform="scale(0.015625)"/>
       </defs>
       <use xlink:href="#DejaVuSans-32"/>
       <use xlink:href="#DejaVuSans-30" x="63.623047"/>
      </g>
     </g>
    </g>
    <g id="xtick_3">
     <g id="line2d_3">
      <path d="M 378.238017 384.48 
L 378.238017 51.84 
" clip-path="url(#p87531db910)" style="fill: none; stroke: #ffffff; stroke-linecap: round"/>
     </g>
     <g id="text_3">
      <!-- 40 -->
      <g style="fill: #262626" transform="translate(371.239267 402.338281) scale(0.11 -0.11)">
       <defs>
        <path id="DejaVuSans-34" d="M 2419 4116 
L 825 1625 
L 2419 1625 
L 2419 4116 
z
M 2253 4666 
L 3047 4666 
L 3047 1625 
L 3713 1625 
L 3713 1100 
L 3047 1100 
L 3047 0 
L 2419 0 
L 2419 1100 
L 313 1100 
L 313 1709 
L 2253 4666 
z
" transform="scale(0.015625)"/>
       </defs>
       <use xlink:href="#DejaVuSans-34"/>
       <use xlink:href="#DejaVuSans-30" x="63.623047"/>
      </g>
     </g>
    </g>
    <g id="xtick_4">
     <g id="line2d_4">
      <path d="M 501.213223 384.48 
L 501.213223 51.84 
" clip-path="url(#p87531db910)" style="fill: none; stroke: #ffffff; stroke-linecap: round"/>
     </g>
     <g id="text_4">
      <!-- 60 -->
      <g style="fill: #262626" transform="translate(494.214473 402.338281) scale(0.11 -0.11)">
       <defs>
        <path id="DejaVuSans-36" d="M 2113 2584 
Q 1688 2584 1439 2293 
Q 1191 2003 1191 1497 
Q 1191 994 1439 701 
Q 1688 409 2113 409 
Q 2538 409 2786 701 
Q 3034 994 3034 1497 
Q 3034 2003 2786 2293 
Q 2538 2584 2113 2584 
z
M 3366 4563 
L 3366 3988 
Q 3128 4100 2886 4159 
Q 2644 4219 2406 4219 
Q 1781 4219 1451 3797 
Q 1122 3375 1075 2522 
Q 1259 2794 1537 2939 
Q 1816 3084 2150 3084 
Q 2853 3084 3261 2657 
Q 3669 2231 3669 1497 
Q 3669 778 3244 343 
Q 2819 -91 2113 -91 
Q 1303 -91 875 529 
Q 447 1150 447 2328 
Q 447 3434 972 4092 
Q 1497 4750 2381 4750 
Q 2619 4750 2861 4703 
Q 3103 4656 3366 4563 
z
" transform="scale(0.015625)"/>
       </defs>
       <use xlink:href="#DejaVuSans-36"/>
       <use xlink:href="#DejaVuSans-30" x="63.623047"/>
      </g>
     </g>
    </g>
    <g id="xtick_5">
     <g id="line2d_5">
      <path d="M 624.18843 384.48 
L 624.18843 51.84 
" clip-path="url(#p87531db910)" style="fill: none; stroke: #ffffff; stroke-linecap: round"/>
     </g>
     <g id="text_5">
      <!-- 80 -->
      <g style="fill: #262626" transform="translate(617.18968 402.338281) scale(0.11 -0.11)">
       <defs>
        <path id="DejaVuSans-38" d="M 2034 2216 
Q 1584 2216 1326 1975 
Q 1069 1734 1069 1313 
Q 1069 891 1326 650 
Q 1584 409 2034 409 
Q 2484 409 2743 651 
Q 3003 894 3003 1313 
Q 3003 1734 2745 1975 
Q 2488 2216 2034 2216 
z
M 1403 2484 
Q 997 2584 770 2862 
Q 544 3141 544 3541 
Q 544 4100 942 4425 
Q 1341 4750 2034 4750 
Q 2731 4750 3128 4425 
Q 3525 4100 3525 3541 
Q 3525 3141 3298 2862 
Q 3072 2584 2669 2484 
Q 3125 2378 3379 2068 
Q 3634 1759 3634 1313 
Q 3634 634 3220 271 
Q 2806 -91 2034 -91 
Q 1263 -91 848 271 
Q 434 634 434 1313 
Q 434 1759 690 2068 
Q 947 2378 1403 2484 
z
M 1172 3481 
Q 1172 3119 1398 2916 
Q 1625 2713 2034 2713 
Q 2441 2713 2670 2916 
Q 2900 3119 2900 3481 
Q 2900 3844 2670 4047 
Q 2441 4250 2034 4250 
Q 1625 4250 1398 4047 
Q 1172 3844 1172 3481 
z
" transform="scale(0.015625)"/>
       </defs>
       <use xlink:href="#DejaVuSans-38"/>
       <use xlink:href="#DejaVuSans-30" x="63.623047"/>
      </g>
     </g>
    </g>
    <g id="xtick_6">
     <g id="line2d_6">
      <path d="M 747.163636 384.48 
L 747.163636 51.84 
" clip-path="url(#p87531db910)" style="fill: none; stroke: #ffffff; stroke-linecap: round"/>
     </g>
     <g id="text_6">
      <!-- 100 -->
      <g style="fill: #262626" transform="translate(736.665511 402.338281) scale(0.11 -0.11)">
       <defs>
        <path id="DejaVuSans-31" d="M 794 531 
L 1825 531 
L 1825 4091 
L 703 3866 
L 703 4441 
L 1819 4666 
L 2450 4666 
L 2450 531 
L 3481 531 
L 3481 0 
L 794 0 
L 794 531 
z
" transform="scale(0.015625)"/>
       </defs>
       <use xlink:href="#DejaVuSans-31"/>
       <use xlink:href="#DejaVuSans-30" x="63.623047"/>
       <use xlink:href="#DejaVuSans-30" x="127.246094"/>
      </g>
     </g>
    </g>
    <g id="text_7">
     <!-- Номер итерации -->
     <g style="fill: #262626" transform="translate(385.847813 418.503906) scale(0.13 -0.13)">
      <defs>
       <path id="DejaVuSans-41d" d="M 628 4666 
L 1259 4666 
L 1259 2753 
L 3553 2753 
L 3553 4666 
L 4184 4666 
L 4184 0 
L 3553 0 
L 3553 2222 
L 1259 2222 
L 1259 0 
L 628 0 
L 628 4666 
z
" transform="scale(0.015625)"/>
       <path id="DejaVuSans-43e" d="M 1959 3097 
Q 1497 3097 1228 2736 
Q 959 2375 959 1747 
Q 959 1119 1226 758 
Q 1494 397 1959 397 
Q 2419 397 2687 759 
Q 2956 1122 2956 1747 
Q 2956 2369 2687 2733 
Q 2419 3097 1959 3097 
z
M 1959 3584 
Q 2709 3584 3137 3096 
Q 3566 2609 3566 1747 
Q 3566 888 3137 398 
Q 2709 -91 1959 -91 
Q 1206 -91 779 398 
Q 353 888 353 1747 
Q 353 2609 779 3096 
Q 1206 3584 1959 3584 
z
" transform="scale(0.015625)"/>
       <path id="DejaVuSans-43c" d="M 581 3500 
L 1422 3500 
L 2416 1156 
L 3413 3500 
L 4247 3500 
L 4247 0 
L 3669 0 
L 3669 2950 
L 2703 672 
L 2128 672 
L 1159 2950 
L 1159 0 
L 581 0 
L 581 3500 
z
" transform="scale(0.015625)"/>
       <path id="DejaVuSans-435" d="M 3597 1894 
L 3597 1613 
L 953 1613 
Q 991 1019 1311 708 
Q 1631 397 2203 397 
Q 2534 397 2845 478 
Q 3156 559 3463 722 
L 3463 178 
Q 3153 47 2828 -22 
Q 2503 -91 2169 -91 
Q 1331 -91 842 396 
Q 353 884 353 1716 
Q 353 2575 817 3079 
Q 1281 3584 2069 3584 
Q 2775 3584 3186 3129 
Q 3597 2675 3597 1894 
z
M 3022 2063 
Q 3016 2534 2758 2815 
Q 2500 3097 2075 3097 
Q 1594 3097 1305 2825 
Q 1016 2553 972 2059 
L 3022 2063 
z
" transform="scale(0.015625)"/>
       <path id="DejaVuSans-440" d="M 1159 525 
L 1159 -1331 
L 581 -1331 
L 581 3500 
L 1159 3500 
L 1159 2969 
Q 1341 3281 1617 3432 
Q 1894 3584 2278 3584 
Q 2916 3584 3314 3078 
Q 3713 2572 3713 1747 
Q 3713 922 3314 415 
Q 2916 -91 2278 -91 
Q 1894 -91 1617 61 
Q 1341 213 1159 525 
z
M 3116 1747 
Q 3116 2381 2855 2742 
Q 2594 3103 2138 3103 
Q 1681 3103 1420 2742 
Q 1159 2381 1159 1747 
Q 1159 1113 1420 752 
Q 1681 391 2138 391 
Q 2594 391 2855 752 
Q 3116 1113 3116 1747 
z
" transform="scale(0.015625)"/>
       <path id="DejaVuSans-20" transform="scale(0.015625)"/>
       <path id="DejaVuSans-438" d="M 3578 3500 
L 3578 0 
L 3006 0 
L 3006 2809 
L 1319 0 
L 581 0 
L 581 3500 
L 1153 3500 
L 1153 697 
L 2838 3500 
L 3578 3500 
z
" transform="scale(0.015625)"/>
       <path id="DejaVuSans-442" d="M 188 3500 
L 3541 3500 
L 3541 3041 
L 2147 3041 
L 2147 0 
L 1581 0 
L 1581 3041 
L 188 3041 
L 188 3500 
z
" transform="scale(0.015625)"/>
       <path id="DejaVuSans-430" d="M 2194 1759 
Q 1497 1759 1228 1600 
Q 959 1441 959 1056 
Q 959 750 1161 570 
Q 1363 391 1709 391 
Q 2188 391 2477 730 
Q 2766 1069 2766 1631 
L 2766 1759 
L 2194 1759 
z
M 3341 1997 
L 3341 0 
L 2766 0 
L 2766 531 
Q 2569 213 2275 61 
Q 1981 -91 1556 -91 
Q 1019 -91 701 211 
Q 384 513 384 1019 
Q 384 1609 779 1909 
Q 1175 2209 1959 2209 
L 2766 2209 
L 2766 2266 
Q 2766 2663 2505 2880 
Q 2244 3097 1772 3097 
Q 1472 3097 1187 3025 
Q 903 2953 641 2809 
L 641 3341 
Q 956 3463 1253 3523 
Q 1550 3584 1831 3584 
Q 2591 3584 2966 3190 
Q 3341 2797 3341 1997 
z
" transform="scale(0.015625)"/>
       <path id="DejaVuSans-446" d="M 3603 0 
L 581 0 
L 581 3500 
L 1159 3500 
L 1159 459 
L 3025 459 
L 3025 3500 
L 3603 3500 
L 3603 459 
L 4063 459 
L 4063 -884 
L 3603 -884 
L 3603 0 
z
" transform="scale(0.015625)"/>
      </defs>
      <use xlink:href="#DejaVuSans-41d"/>
      <use xlink:href="#DejaVuSans-43e" x="75.195312"/>
      <use xlink:href="#DejaVuSans-43c" x="136.376953"/>
      <use xlink:href="#DejaVuSans-435" x="211.816406"/>
      <use xlink:href="#DejaVuSans-440" x="273.339844"/>
      <use xlink:href="#DejaVuSans-20" x="336.816406"/>
      <use xlink:href="#DejaVuSans-438" x="368.603516"/>
      <use xlink:href="#DejaVuSans-442" x="433.59375"/>
      <use xlink:href="#DejaVuSans-435" x="491.845703"/>
      <use xlink:href="#DejaVuSans-440" x="553.369141"/>
      <use xlink:href="#DejaVuSans-430" x="616.845703"/>
      <use xlink:href="#DejaVuSans-446" x="678.125"/>
      <use xlink:href="#DejaVuSans-438" x="746.191406"/>
      <use xlink:href="#DejaVuSans-438" x="811.181641"/>
     </g>
    </g>
   </g>
   <g id="matplotlib.axis_2">
    <g id="ytick_1">
     <g id="line2d_7">
      <path d="M 108 371.636374 
L 777.6 371.636374 
" clip-path="url(#p87531db910)" style="fill: none; stroke: #ffffff; stroke-linecap: round"/>
     </g>
     <g id="text_8">
      <!-- 330 -->
      <g style="fill: #262626" transform="translate(77.50375 375.815514) scale(0.11 -0.11)">
       <defs>
        <path id="DejaVuSans-33" d="M 2597 2516 
Q 3050 2419 3304 2112 
Q 3559 1806 3559 1356 
Q 3559 666 3084 287 
Q 2609 -91 1734 -91 
Q 1441 -91 1130 -33 
Q 819 25 488 141 
L 488 750 
Q 750 597 1062 519 
Q 1375 441 1716 441 
Q 2309 441 2620 675 
Q 2931 909 2931 1356 
Q 2931 1769 2642 2001 
Q 2353 2234 1838 2234 
L 1294 2234 
L 1294 2753 
L 1863 2753 
Q 2328 2753 2575 2939 
Q 2822 3125 2822 3475 
Q 2822 3834 2567 4026 
Q 2313 4219 1838 4219 
Q 1578 4219 1281 4162 
Q 984 4106 628 3988 
L 628 4550 
Q 988 4650 1302 4700 
Q 1616 4750 1894 4750 
Q 2613 4750 3031 4423 
Q 3450 4097 3450 3541 
Q 3450 3153 3228 2886 
Q 3006 2619 2597 2516 
z
" transform="scale(0.015625)"/>
       </defs>
       <use xlink:href="#DejaVuSans-33"/>
       <use xlink:href="#DejaVuSans-33" x="63.623047"/>
       <use xlink:href="#DejaVuSans-30" x="127.246094"/>
      </g>
     </g>
    </g>
    <g id="ytick_2">
     <g id="line2d_8">
      <path d="M 108 326.601259 
L 777.6 326.601259 
" clip-path="url(#p87531db910)" style="fill: none; stroke: #ffffff; stroke-linecap: round"/>
     </g>
     <g id="text_9">
      <!-- 340 -->
      <g style="fill: #262626" transform="translate(77.50375 330.7804) scale(0.11 -0.11)">
       <use xlink:href="#DejaVuSans-33"/>
       <use xlink:href="#DejaVuSans-34" x="63.623047"/>
       <use xlink:href="#DejaVuSans-30" x="127.246094"/>
      </g>
     </g>
    </g>
    <g id="ytick_3">
     <g id="line2d_9">
      <path d="M 108 281.566145 
L 777.6 281.566145 
" clip-path="url(#p87531db910)" style="fill: none; stroke: #ffffff; stroke-linecap: round"/>
     </g>
     <g id="text_10">
      <!-- 350 -->
      <g style="fill: #262626" transform="translate(77.50375 285.745286) scale(0.11 -0.11)">
       <defs>
        <path id="DejaVuSans-35" d="M 691 4666 
L 3169 4666 
L 3169 4134 
L 1269 4134 
L 1269 2991 
Q 1406 3038 1543 3061 
Q 1681 3084 1819 3084 
Q 2600 3084 3056 2656 
Q 3513 2228 3513 1497 
Q 3513 744 3044 326 
Q 2575 -91 1722 -91 
Q 1428 -91 1123 -41 
Q 819 9 494 109 
L 494 744 
Q 775 591 1075 516 
Q 1375 441 1709 441 
Q 2250 441 2565 725 
Q 2881 1009 2881 1497 
Q 2881 1984 2565 2268 
Q 2250 2553 1709 2553 
Q 1456 2553 1204 2497 
Q 953 2441 691 2322 
L 691 4666 
z
" transform="scale(0.015625)"/>
       </defs>
       <use xlink:href="#DejaVuSans-33"/>
       <use xlink:href="#DejaVuSans-35" x="63.623047"/>
       <use xlink:href="#DejaVuSans-30" x="127.246094"/>
      </g>
     </g>
    </g>
    <g id="ytick_4">
     <g id="line2d_10">
      <path d="M 108 236.531031 
L 777.6 236.531031 
" clip-path="url(#p87531db910)" style="fill: none; stroke: #ffffff; stroke-linecap: round"/>
     </g>
     <g id="text_11">
      <!-- 360 -->
      <g style="fill: #262626" transform="translate(77.50375 240.710171) scale(0.11 -0.11)">
       <use xlink:href="#DejaVuSans-33"/>
       <use xlink:href="#DejaVuSans-36" x="63.623047"/>
       <use xlink:href="#DejaVuSans-30" x="127.246094"/>
      </g>
     </g>
    </g>
    <g id="ytick_5">
     <g id="line2d_11">
      <path d="M 108 191.495917 
L 777.6 191.495917 
" clip-path="url(#p87531db910)" style="fill: none; stroke: #ffffff; stroke-linecap: round"/>
     </g>
     <g id="text_12">
      <!-- 370 -->
      <g style="fill: #262626" transform="translate(77.50375 195.675057) scale(0.11 -0.11)">
       <defs>
        <path id="DejaVuSans-37" d="M 525 4666 
L 3525 4666 
L 3525 4397 
L 1831 0 
L 1172 0 
L 2766 4134 
L 525 4134 
L 525 4666 
z
" transform="scale(0.015625)"/>
       </defs>
       <use xlink:href="#DejaVuSans-33"/>
       <use xlink:href="#DejaVuSans-37" x="63.623047"/>
       <use xlink:href="#DejaVuSans-30" x="127.246094"/>
      </g>
     </g>
    </g>
    <g id="ytick_6">
     <g id="line2d_12">
      <path d="M 108 146.460802 
L 777.6 146.460802 
" clip-path="url(#p87531db910)" style="fill: none; stroke: #ffffff; stroke-linecap: round"/>
     </g>
     <g id="text_13">
      <!-- 380 -->
      <g style="fill: #262626" transform="translate(77.50375 150.639943) scale(0.11 -0.11)">
       <use xlink:href="#DejaVuSans-33"/>
       <use xlink:href="#DejaVuSans-38" x="63.623047"/>
       <use xlink:href="#DejaVuSans-30" x="127.246094"/>
      </g>
     </g>
    </g>
    <g id="ytick_7">
     <g id="line2d_13">
      <path d="M 108 101.425688 
L 777.6 101.425688 
" clip-path="url(#p87531db910)" style="fill: none; stroke: #ffffff; stroke-linecap: round"/>
     </g>
     <g id="text_14">
      <!-- 390 -->
      <g style="fill: #262626" transform="translate(77.50375 105.604828) scale(0.11 -0.11)">
       <defs>
        <path id="DejaVuSans-39" d="M 703 97 
L 703 672 
Q 941 559 1184 500 
Q 1428 441 1663 441 
Q 2288 441 2617 861 
Q 2947 1281 2994 2138 
Q 2813 1869 2534 1725 
Q 2256 1581 1919 1581 
Q 1219 1581 811 2004 
Q 403 2428 403 3163 
Q 403 3881 828 4315 
Q 1253 4750 1959 4750 
Q 2769 4750 3195 4129 
Q 3622 3509 3622 2328 
Q 3622 1225 3098 567 
Q 2575 -91 1691 -91 
Q 1453 -91 1209 -44 
Q 966 3 703 97 
z
M 1959 2075 
Q 2384 2075 2632 2365 
Q 2881 2656 2881 3163 
Q 2881 3666 2632 3958 
Q 2384 4250 1959 4250 
Q 1534 4250 1286 3958 
Q 1038 3666 1038 3163 
Q 1038 2656 1286 2365 
Q 1534 2075 1959 2075 
z
" transform="scale(0.015625)"/>
       </defs>
       <use xlink:href="#DejaVuSans-33"/>
       <use xlink:href="#DejaVuSans-39" x="63.623047"/>
       <use xlink:href="#DejaVuSans-30" x="127.246094"/>
      </g>
     </g>
    </g>
    <g id="ytick_8">
     <g id="line2d_14">
      <path d="M 108 56.390574 
L 777.6 56.390574 
" clip-path="url(#p87531db910)" style="fill: none; stroke: #ffffff; stroke-linecap: round"/>
     </g>
     <g id="text_15">
      <!-- 400 -->
      <g style="fill: #262626" transform="translate(77.50375 60.569714) scale(0.11 -0.11)">
       <use xlink:href="#DejaVuSans-34"/>
       <use xlink:href="#DejaVuSans-30" x="63.623047"/>
       <use xlink:href="#DejaVuSans-30" x="127.246094"/>
      </g>
     </g>
    </g>
    <g id="text_16">
     <!-- Длина маршрута -->
     <g style="fill: #262626" transform="translate(70.800156 276.619375) rotate(-90) scale(0.13 -0.13)">
      <defs>
       <path id="DejaVuSans-414" d="M 1459 531 
L 3522 531 
L 3522 4134 
L 2006 4134 
L 2006 3472 
Q 2006 1913 1656 878 
Q 1584 666 1459 531 
z
M 538 531 
Q 956 728 1075 1103 
Q 1378 2066 1378 3784 
L 1378 4666 
L 4153 4666 
L 4153 531 
L 4684 531 
L 4684 -1003 
L 4153 -1003 
L 4153 0 
L 847 0 
L 847 -1003 
L 316 -1003 
L 316 531 
L 538 531 
z
" transform="scale(0.015625)"/>
       <path id="DejaVuSans-43b" d="M 238 0 
L 238 478 
Q 806 566 981 959 
Q 1194 1513 1194 2928 
L 1194 3500 
L 3559 3500 
L 3559 0 
L 2984 0 
L 2984 3041 
L 1769 3041 
L 1769 2694 
Q 1769 1344 1494 738 
Q 1200 91 238 0 
z
" transform="scale(0.015625)"/>
       <path id="DejaVuSans-43d" d="M 581 3500 
L 1159 3500 
L 1159 2072 
L 3025 2072 
L 3025 3500 
L 3603 3500 
L 3603 0 
L 3025 0 
L 3025 1613 
L 1159 1613 
L 1159 0 
L 581 0 
L 581 3500 
z
" transform="scale(0.015625)"/>
       <path id="DejaVuSans-448" d="M 3216 459 
L 4697 459 
L 4697 3500 
L 5275 3500 
L 5275 0 
L 581 0 
L 581 3500 
L 1159 3500 
L 1159 459 
L 2638 459 
L 2638 3500 
L 3216 3500 
L 3216 459 
z
" transform="scale(0.015625)"/>
       <path id="DejaVuSans-443" d="M 2059 -325 
Q 1816 -950 1584 -1140 
Q 1353 -1331 966 -1331 
L 506 -1331 
L 506 -850 
L 844 -850 
Q 1081 -850 1212 -737 
Q 1344 -625 1503 -206 
L 1606 56 
L 191 3500 
L 800 3500 
L 1894 763 
L 2988 3500 
L 3597 3500 
L 2059 -325 
z
" transform="scale(0.015625)"/>
      </defs>
      <use xlink:href="#DejaVuSans-414"/>
      <use xlink:href="#DejaVuSans-43b" x="78.125"/>
      <use xlink:href="#DejaVuSans-438" x="142.041016"/>
      <use xlink:href="#DejaVuSans-43d" x="207.03125"/>
      <use xlink:href="#DejaVuSans-430" x="272.412109"/>
      <use xlink:href="#DejaVuSans-20" x="333.691406"/>
      <use xlink:href="#DejaVuSans-43c" x="365.478516"/>
      <use xlink:href="#DejaVuSans-430" x="440.917969"/>
      <use xlink:href="#DejaVuSans-440" x="502.197266"/>
      <use xlink:href="#DejaVuSans-448" x="565.673828"/>
      <use xlink:href="#DejaVuSans-440" x="657.177734"/>
      <use xlink:href="#DejaVuSans-443" x="720.654297"/>
      <use xlink:href="#DejaVuSans-442" x="779.833984"/>
      <use xlink:href="#DejaVuSans-430" x="838.085938"/>
     </g>
    </g>
   </g>
   <g id="line2d_15">
    <path d="M 138.436364 229.38624 
L 144.585124 285.686279 
L 150.733884 146.535458 
L 156.882645 135.956184 
L 163.031405 134.526542 
L 169.180165 144.846472 
L 175.328926 169.248485 
L 181.477686 237.19783 
L 187.626446 369.36 
L 193.775207 142.830938 
L 199.923967 78.696872 
L 206.072727 132.662617 
L 212.221488 91.139205 
L 218.370248 76.832639 
L 224.519008 66.96 
L 230.667769 164.728857 
L 236.816529 99.698588 
L 242.965289 110.0728 
L 249.11405 68.655553 
L 255.26281 155.870938 
L 261.41157 167.19255 
L 267.560331 239.414641 
L 273.709091 153.895942 
L 279.857851 228.087269 
L 286.006612 321.147352 
L 292.155372 305.17746 
L 298.304132 127.725776 
L 304.452893 206.883314 
L 310.601653 86.126232 
L 316.750413 230.645599 
L 322.899174 242.754197 
L 329.047934 136.959079 
L 335.196694 135.161202 
L 341.345455 209.539647 
L 347.494215 222.450392 
L 353.642975 196.729446 
L 359.791736 138.934106 
L 365.940496 238.419073 
L 372.089256 145.936181 
L 378.238017 204.214278 
L 384.386777 229.38624 
L 390.535537 182.975125 
L 396.684298 232.411284 
L 402.833058 210.857034 
L 408.981818 322.722256 
L 415.130579 183.092161 
L 421.279339 164.710092 
L 427.428099 140.367891 
L 433.57686 195.046995 
L 439.72562 264.011262 
L 445.87438 125.553129 
L 452.02314 136.959079 
L 458.171901 144.158599 
L 464.320661 176.924483 
L 470.469421 128.873742 
L 476.618182 129.405012 
L 482.766942 229.667011 
L 488.915702 167.19255 
L 495.064463 265.660551 
L 501.213223 137.672425 
L 507.361983 245.748418 
L 513.510744 183.360516 
L 519.659504 213.75575 
L 525.808264 170.929429 
L 531.957025 297.118743 
L 538.105785 242.408863 
L 544.254545 280.623932 
L 550.403306 186.279766 
L 556.552066 140.148508 
L 562.700826 240.818705 
L 568.849587 264.011262 
L 574.998347 251.103505 
L 581.147107 212.170977 
L 587.295868 313.059961 
L 593.444628 137.078507 
L 599.593388 238.165324 
L 605.742149 229.773822 
L 611.890909 225.695147 
L 618.039669 269.717538 
L 624.18843 230.929714 
L 630.33719 137.078507 
L 636.48595 280.623932 
L 642.634711 194.541548 
L 648.783471 153.653599 
L 654.932231 265.198249 
L 661.080992 113.915959 
L 667.229752 280.623932 
L 673.378512 175.866163 
L 679.527273 245.748418 
L 685.676033 188.112121 
L 691.824793 240.273084 
L 697.973554 238.165324 
L 704.122314 265.660551 
L 710.271074 192.202086 
L 716.419835 257.431459 
L 722.568595 227.829174 
L 728.717355 351.235618 
L 734.866116 203.353724 
L 741.014876 209.515533 
L 747.163636 192.893623 
" clip-path="url(#p87531db910)" style="fill: none; stroke: #0000ff; stroke-linecap: round"/>
   </g>
   <g id="line2d_16">
    <path d="M 138.436364 229.38624 
L 144.585124 285.686279 
L 150.733884 285.686279 
L 156.882645 285.686279 
L 163.031405 285.686279 
L 169.180165 285.686279 
L 175.328926 285.686279 
L 181.477686 285.686279 
L 187.626446 369.36 
L 193.775207 369.36 
L 199.923967 369.36 
L 206.072727 369.36 
L 212.221488 369.36 
L 218.370248 369.36 
L 224.519008 369.36 
L 230.667769 369.36 
L 236.816529 369.36 
L 242.965289 369.36 
L 249.11405 369.36 
L 255.26281 369.36 
L 261.41157 369.36 
L 267.560331 369.36 
L 273.709091 369.36 
L 279.857851 369.36 
L 286.006612 369.36 
L 292.155372 369.36 
L 298.304132 369.36 
L 304.452893 369.36 
L 310.601653 369.36 
L 316.750413 369.36 
L 322.899174 369.36 
L 329.047934 369.36 
L 335.196694 369.36 
L 341.345455 369.36 
L 347.494215 369.36 
L 353.642975 369.36 
L 359.791736 369.36 
L 365.940496 369.36 
L 372.089256 369.36 
L 378.238017 369.36 
L 384.386777 369.36 
L 390.535537 369.36 
L 396.684298 369.36 
L 402.833058 369.36 
L 408.981818 369.36 
L 415.130579 369.36 
L 421.279339 369.36 
L 427.428099 369.36 
L 433.57686 369.36 
L 439.72562 369.36 
L 445.87438 369.36 
L 452.02314 369.36 
L 458.171901 369.36 
L 464.320661 369.36 
L 470.469421 369.36 
L 476.618182 369.36 
L 482.766942 369.36 
L 488.915702 369.36 
L 495.064463 369.36 
L 501.213223 369.36 
L 507.361983 369.36 
L 513.510744 369.36 
L 519.659504 369.36 
L 525.808264 369.36 
L 531.957025 369.36 
L 538.105785 369.36 
L 544.254545 369.36 
L 550.403306 369.36 
L 556.552066 369.36 
L 562.700826 369.36 
L 568.849587 369.36 
L 574.998347 369.36 
L 581.147107 369.36 
L 587.295868 369.36 
L 593.444628 369.36 
L 599.593388 369.36 
L 605.742149 369.36 
L 611.890909 369.36 
L 618.039669 369.36 
L 624.18843 369.36 
L 630.33719 369.36 
L 636.48595 369.36 
L 642.634711 369.36 
L 648.783471 369.36 
L 654.932231 369.36 
L 661.080992 369.36 
L 667.229752 369.36 
L 673.378512 369.36 
L 679.527273 369.36 
L 685.676033 369.36 
L 691.824793 369.36 
L 697.973554 369.36 
L 704.122314 369.36 
L 710.271074 369.36 
L 716.419835 369.36 
L 722.568595 369.36 
L 728.717355 369.36 
L 734.866116 369.36 
L 741.014876 369.36 
L 747.163636 369.36 
" clip-path="url(#p87531db910)" style="fill: none; stroke: #ff0000; stroke-width: 1.5; stroke-linecap: round"/>
   </g>
   <g id="line2d_17">
    <path d="M 138.436364 369.36 
L 144.585124 369.36 
L 150.733884 369.36 
L 156.882645 369.36 
L 163.031405 369.36 
L 169.180165 369.36 
L 175.328926 369.36 
L 181.477686 369.36 
L 187.626446 369.36 
L 193.775207 369.36 
L 199.923967 369.36 
L 206.072727 369.36 
L 212.221488 369.36 
L 218.370248 369.36 
L 224.519008 369.36 
L 230.667769 369.36 
L 236.816529 369.36 
L 242.965289 369.36 
L 249.11405 369.36 
L 255.26281 369.36 
L 261.41157 369.36 
L 267.560331 369.36 
L 273.709091 369.36 
L 279.857851 369.36 
L 286.006612 369.36 
L 292.155372 369.36 
L 298.304132 369.36 
L 304.452893 369.36 
L 310.601653 369.36 
L 316.750413 369.36 
L 322.899174 369.36 
L 329.047934 369.36 
L 335.196694 369.36 
L 341.345455 369.36 
L 347.494215 369.36 
L 353.642975 369.36 
L 359.791736 369.36 
L 365.940496 369.36 
L 372.089256 369.36 
L 378.238017 369.36 
L 384.386777 369.36 
L 390.535537 369.36 
L 396.684298 369.36 
L 402.833058 369.36 
L 408.981818 369.36 
L 415.130579 369.36 
L 421.279339 369.36 
L 427.428099 369.36 
L 433.57686 369.36 
L 439.72562 369.36 
L 445.87438 369.36 
L 452.02314 369.36 
L 458.171901 369.36 
L 464.320661 369.36 
L 470.469421 369.36 
L 476.618182 369.36 
L 482.766942 369.36 
L 488.915702 369.36 
L 495.064463 369.36 
L 501.213223 369.36 
L 507.361983 369.36 
L 513.510744 369.36 
L 519.659504 369.36 
L 525.808264 369.36 
L 531.957025 369.36 
L 538.105785 369.36 
L 544.254545 369.36 
L 550.403306 369.36 
L 556.552066 369.36 
L 562.700826 369.36 
L 568.849587 369.36 
L 574.998347 369.36 
L 581.147107 369.36 
L 587.295868 369.36 
L 593.444628 369.36 
L 599.593388 369.36 
L 605.742149 369.36 
L 611.890909 369.36 
L 618.039669 369.36 
L 624.18843 369.36 
L 630.33719 369.36 
L 636.48595 369.36 
L 642.634711 369.36 
L 648.783471 369.36 
L 654.932231 369.36 
L 661.080992 369.36 
L 667.229752 369.36 
L 673.378512 369.36 
L 679.527273 369.36 
L 685.676033 369.36 
L 691.824793 369.36 
L 697.973554 369.36 
L 704.122314 369.36 
L 710.271074 369.36 
L 716.419835 369.36 
L 722.568595 369.36 
L 728.717355 369.36 
L 734.866116 369.36 
L 741.014876 369.36 
L 747.163636 369.36 
" clip-path="url(#p87531db910)" style="fill: none; stroke-dasharray: 3.7,1.6; stroke-dashoffset: 0; stroke: #008000"/>
   </g>
   <g id="patch_3">
    <path d="M 108 384.48 
L 108 51.84 
" style="fill: none; stroke: #ffffff; stroke-width: 1.25; stroke-linejoin: miter; stroke-linecap: square"/>
   </g>
   <g id="patch_4">
    <path d="M 777.6 384.48 
L 777.6 51.84 
" style="fill: none; stroke: #ffffff; stroke-width: 1.25; stroke-linejoin: miter; stroke-linecap: square"/>
   </g>
   <g id="patch_5">
    <path d="M 108 384.48 
L 777.6 384.48 
" style="fill: none; stroke: #ffffff; stroke-width: 1.25; stroke-linejoin: miter; stroke-linecap: square"/>
   </g>
   <g id="patch_6">
    <path d="M 108 51.84 
L 777.6 51.84 
" style="fill: none; stroke: #ffffff; stroke-width: 1.25; stroke-linejoin: miter; stroke-linecap: square"/>
   </g>
   <g id="text_17">
    <!-- Исследование процесса решения алгоритмом Ant System (16 городов) -->
    <g style="fill: #262626" transform="translate(142.8675 45.84) scale(0.16 -0.16)">
     <defs>
      <path id="DejaVuSans-418" d="M 4159 4666 
L 4159 0 
L 3547 0 
L 3547 3903 
L 1478 0 
L 628 0 
L 628 4666 
L 1241 4666 
L 1241 763 
L 3309 4666 
L 4159 4666 
z
" transform="scale(0.015625)"/>
      <path id="DejaVuSans-441" d="M 3122 3366 
L 3122 2828 
Q 2878 2963 2633 3030 
Q 2388 3097 2138 3097 
Q 1578 3097 1268 2742 
Q 959 2388 959 1747 
Q 959 1106 1268 751 
Q 1578 397 2138 397 
Q 2388 397 2633 464 
Q 2878 531 3122 666 
L 3122 134 
Q 2881 22 2623 -34 
Q 2366 -91 2075 -91 
Q 1284 -91 818 406 
Q 353 903 353 1747 
Q 353 2603 823 3093 
Q 1294 3584 2113 3584 
Q 2378 3584 2631 3529 
Q 2884 3475 3122 3366 
z
" transform="scale(0.015625)"/>
      <path id="DejaVuSans-434" d="M 1384 459 
L 3053 459 
L 3053 3041 
L 1844 3041 
L 1844 2603 
Q 1844 1316 1475 628 
L 1384 459 
z
M 550 459 
Q 834 584 959 850 
Q 1266 1509 1266 2838 
L 1266 3500 
L 3631 3500 
L 3631 459 
L 4091 459 
L 4091 -884 
L 3631 -884 
L 3631 0 
L 794 0 
L 794 -884 
L 334 -884 
L 334 459 
L 550 459 
z
" transform="scale(0.015625)"/>
      <path id="DejaVuSans-432" d="M 1156 1613 
L 1156 459 
L 1975 459 
Q 2369 459 2575 607 
Q 2781 756 2781 1038 
Q 2781 1319 2575 1466 
Q 2369 1613 1975 1613 
L 1156 1613 
z
M 1156 3041 
L 1156 2072 
L 1913 2072 
Q 2238 2072 2444 2201 
Q 2650 2331 2650 2563 
Q 2650 2794 2444 2917 
Q 2238 3041 1913 3041 
L 1156 3041 
z
M 581 3500 
L 1950 3500 
Q 2566 3500 2897 3275 
Q 3228 3050 3228 2634 
Q 3228 2313 3059 2123 
Q 2891 1934 2559 1888 
Q 2956 1813 3175 1575 
Q 3394 1338 3394 981 
Q 3394 513 3033 256 
Q 2672 0 2003 0 
L 581 0 
L 581 3500 
z
" transform="scale(0.015625)"/>
      <path id="DejaVuSans-43f" d="M 3603 3500 
L 3603 0 
L 3025 0 
L 3025 3041 
L 1159 3041 
L 1159 0 
L 581 0 
L 581 3500 
L 3603 3500 
z
" transform="scale(0.015625)"/>
      <path id="DejaVuSans-44f" d="M 1181 2491 
Q 1181 2231 1381 2084 
Q 1581 1938 1953 1938 
L 2728 1938 
L 2728 3041 
L 1953 3041 
Q 1581 3041 1381 2897 
Q 1181 2753 1181 2491 
z
M 363 0 
L 1431 1534 
Q 1069 1616 828 1830 
Q 588 2044 588 2491 
Q 588 2997 923 3248 
Q 1259 3500 1938 3500 
L 3306 3500 
L 3306 0 
L 2728 0 
L 2728 1478 
L 2013 1478 
L 981 0 
L 363 0 
z
" transform="scale(0.015625)"/>
      <path id="DejaVuSans-433" d="M 581 0 
L 581 3500 
L 3050 3500 
L 3050 3041 
L 1159 3041 
L 1159 0 
L 581 0 
z
" transform="scale(0.015625)"/>
      <path id="DejaVuSans-41" d="M 2188 4044 
L 1331 1722 
L 3047 1722 
L 2188 4044 
z
M 1831 4666 
L 2547 4666 
L 4325 0 
L 3669 0 
L 3244 1197 
L 1141 1197 
L 716 0 
L 50 0 
L 1831 4666 
z
" transform="scale(0.015625)"/>
      <path id="DejaVuSans-6e" d="M 3513 2113 
L 3513 0 
L 2938 0 
L 2938 2094 
Q 2938 2591 2744 2837 
Q 2550 3084 2163 3084 
Q 1697 3084 1428 2787 
Q 1159 2491 1159 1978 
L 1159 0 
L 581 0 
L 581 3500 
L 1159 3500 
L 1159 2956 
Q 1366 3272 1645 3428 
Q 1925 3584 2291 3584 
Q 2894 3584 3203 3211 
Q 3513 2838 3513 2113 
z
" transform="scale(0.015625)"/>
      <path id="DejaVuSans-74" d="M 1172 4494 
L 1172 3500 
L 2356 3500 
L 2356 3053 
L 1172 3053 
L 1172 1153 
Q 1172 725 1289 603 
Q 1406 481 1766 481 
L 2356 481 
L 2356 0 
L 1766 0 
Q 1100 0 847 248 
Q 594 497 594 1153 
L 594 3053 
L 172 3053 
L 172 3500 
L 594 3500 
L 594 4494 
L 1172 4494 
z
" transform="scale(0.015625)"/>
      <path id="DejaVuSans-53" d="M 3425 4513 
L 3425 3897 
Q 3066 4069 2747 4153 
Q 2428 4238 2131 4238 
Q 1616 4238 1336 4038 
Q 1056 3838 1056 3469 
Q 1056 3159 1242 3001 
Q 1428 2844 1947 2747 
L 2328 2669 
Q 3034 2534 3370 2195 
Q 3706 1856 3706 1288 
Q 3706 609 3251 259 
Q 2797 -91 1919 -91 
Q 1588 -91 1214 -16 
Q 841 59 441 206 
L 441 856 
Q 825 641 1194 531 
Q 1563 422 1919 422 
Q 2459 422 2753 634 
Q 3047 847 3047 1241 
Q 3047 1584 2836 1778 
Q 2625 1972 2144 2069 
L 1759 2144 
Q 1053 2284 737 2584 
Q 422 2884 422 3419 
Q 422 4038 858 4394 
Q 1294 4750 2059 4750 
Q 2388 4750 2728 4690 
Q 3069 4631 3425 4513 
z
" transform="scale(0.015625)"/>
      <path id="DejaVuSans-79" d="M 2059 -325 
Q 1816 -950 1584 -1140 
Q 1353 -1331 966 -1331 
L 506 -1331 
L 506 -850 
L 844 -850 
Q 1081 -850 1212 -737 
Q 1344 -625 1503 -206 
L 1606 56 
L 191 3500 
L 800 3500 
L 1894 763 
L 2988 3500 
L 3597 3500 
L 2059 -325 
z
" transform="scale(0.015625)"/>
      <path id="DejaVuSans-73" d="M 2834 3397 
L 2834 2853 
Q 2591 2978 2328 3040 
Q 2066 3103 1784 3103 
Q 1356 3103 1142 2972 
Q 928 2841 928 2578 
Q 928 2378 1081 2264 
Q 1234 2150 1697 2047 
L 1894 2003 
Q 2506 1872 2764 1633 
Q 3022 1394 3022 966 
Q 3022 478 2636 193 
Q 2250 -91 1575 -91 
Q 1294 -91 989 -36 
Q 684 19 347 128 
L 347 722 
Q 666 556 975 473 
Q 1284 391 1588 391 
Q 1994 391 2212 530 
Q 2431 669 2431 922 
Q 2431 1156 2273 1281 
Q 2116 1406 1581 1522 
L 1381 1569 
Q 847 1681 609 1914 
Q 372 2147 372 2553 
Q 372 3047 722 3315 
Q 1072 3584 1716 3584 
Q 2034 3584 2315 3537 
Q 2597 3491 2834 3397 
z
" transform="scale(0.015625)"/>
      <path id="DejaVuSans-65" d="M 3597 1894 
L 3597 1613 
L 953 1613 
Q 991 1019 1311 708 
Q 1631 397 2203 397 
Q 2534 397 2845 478 
Q 3156 559 3463 722 
L 3463 178 
Q 3153 47 2828 -22 
Q 2503 -91 2169 -91 
Q 1331 -91 842 396 
Q 353 884 353 1716 
Q 353 2575 817 3079 
Q 1281 3584 2069 3584 
Q 2775 3584 3186 3129 
Q 3597 2675 3597 1894 
z
M 3022 2063 
Q 3016 2534 2758 2815 
Q 2500 3097 2075 3097 
Q 1594 3097 1305 2825 
Q 1016 2553 972 2059 
L 3022 2063 
z
" transform="scale(0.015625)"/>
      <path id="DejaVuSans-6d" d="M 3328 2828 
Q 3544 3216 3844 3400 
Q 4144 3584 4550 3584 
Q 5097 3584 5394 3201 
Q 5691 2819 5691 2113 
L 5691 0 
L 5113 0 
L 5113 2094 
Q 5113 2597 4934 2840 
Q 4756 3084 4391 3084 
Q 3944 3084 3684 2787 
Q 3425 2491 3425 1978 
L 3425 0 
L 2847 0 
L 2847 2094 
Q 2847 2600 2669 2842 
Q 2491 3084 2119 3084 
Q 1678 3084 1418 2786 
Q 1159 2488 1159 1978 
L 1159 0 
L 581 0 
L 581 3500 
L 1159 3500 
L 1159 2956 
Q 1356 3278 1631 3431 
Q 1906 3584 2284 3584 
Q 2666 3584 2933 3390 
Q 3200 3197 3328 2828 
z
" transform="scale(0.015625)"/>
      <path id="DejaVuSans-28" d="M 1984 4856 
Q 1566 4138 1362 3434 
Q 1159 2731 1159 2009 
Q 1159 1288 1364 580 
Q 1569 -128 1984 -844 
L 1484 -844 
Q 1016 -109 783 600 
Q 550 1309 550 2009 
Q 550 2706 781 3412 
Q 1013 4119 1484 4856 
L 1984 4856 
z
" transform="scale(0.015625)"/>
      <path id="DejaVuSans-29" d="M 513 4856 
L 1013 4856 
Q 1481 4119 1714 3412 
Q 1947 2706 1947 2009 
Q 1947 1309 1714 600 
Q 1481 -109 1013 -844 
L 513 -844 
Q 928 -128 1133 580 
Q 1338 1288 1338 2009 
Q 1338 2731 1133 3434 
Q 928 4138 513 4856 
z
" transform="scale(0.015625)"/>
     </defs>
     <use xlink:href="#DejaVuSans-418"/>
     <use xlink:href="#DejaVuSans-441" x="74.804688"/>
     <use xlink:href="#DejaVuSans-441" x="129.785156"/>
     <use xlink:href="#DejaVuSans-43b" x="184.765625"/>
     <use xlink:href="#DejaVuSans-435" x="248.681641"/>
     <use xlink:href="#DejaVuSans-434" x="310.205078"/>
     <use xlink:href="#DejaVuSans-43e" x="379.345703"/>
     <use xlink:href="#DejaVuSans-432" x="440.527344"/>
     <use xlink:href="#DejaVuSans-430" x="499.462891"/>
     <use xlink:href="#DejaVuSans-43d" x="560.742188"/>
     <use xlink:href="#DejaVuSans-438" x="626.123047"/>
     <use xlink:href="#DejaVuSans-435" x="691.113281"/>
     <use xlink:href="#DejaVuSans-20" x="752.636719"/>
     <use xlink:href="#DejaVuSans-43f" x="784.423828"/>
     <use xlink:href="#DejaVuSans-440" x="849.804688"/>
     <use xlink:href="#DejaVuSans-43e" x="913.28125"/>
     <use xlink:href="#DejaVuSans-446" x="974.462891"/>
     <use xlink:href="#DejaVuSans-435" x="1042.529297"/>
     <use xlink:href="#DejaVuSans-441" x="1104.052734"/>
     <use xlink:href="#DejaVuSans-441" x="1159.033203"/>
     <use xlink:href="#DejaVuSans-430" x="1214.013672"/>
     <use xlink:href="#DejaVuSans-20" x="1275.292969"/>
     <use xlink:href="#DejaVuSans-440" x="1307.080078"/>
     <use xlink:href="#DejaVuSans-435" x="1370.556641"/>
     <use xlink:href="#DejaVuSans-448" x="1432.080078"/>
     <use xlink:href="#DejaVuSans-435" x="1523.583984"/>
     <use xlink:href="#DejaVuSans-43d" x="1585.107422"/>
     <use xlink:href="#DejaVuSans-438" x="1650.488281"/>
     <use xlink:href="#DejaVuSans-44f" x="1715.478516"/>
     <use xlink:href="#DejaVuSans-20" x="1775.634766"/>
     <use xlink:href="#DejaVuSans-430" x="1807.421875"/>
     <use xlink:href="#DejaVuSans-43b" x="1868.701172"/>
     <use xlink:href="#DejaVuSans-433" x="1932.617188"/>
     <use xlink:href="#DejaVuSans-43e" x="1985.15625"/>
     <use xlink:href="#DejaVuSans-440" x="2046.337891"/>
     <use xlink:href="#DejaVuSans-438" x="2109.814453"/>
     <use xlink:href="#DejaVuSans-442" x="2174.804688"/>
     <use xlink:href="#DejaVuSans-43c" x="2233.056641"/>
     <use xlink:href="#DejaVuSans-43e" x="2308.496094"/>
     <use xlink:href="#DejaVuSans-43c" x="2369.677734"/>
     <use xlink:href="#DejaVuSans-20" x="2445.117188"/>
     <use xlink:href="#DejaVuSans-41" x="2476.904297"/>
     <use xlink:href="#DejaVuSans-6e" x="2545.3125"/>
     <use xlink:href="#DejaVuSans-74" x="2608.691406"/>
     <use xlink:href="#DejaVuSans-20" x="2647.900391"/>
     <use xlink:href="#DejaVuSans-53" x="2679.6875"/>
     <use xlink:href="#DejaVuSans-79" x="2743.164062"/>
     <use xlink:href="#DejaVuSans-73" x="2802.34375"/>
     <use xlink:href="#DejaVuSans-74" x="2854.443359"/>
     <use xlink:href="#DejaVuSans-65" x="2893.652344"/>
     <use xlink:href="#DejaVuSans-6d" x="2955.175781"/>
     <use xlink:href="#DejaVuSans-20" x="3052.587891"/>
     <use xlink:href="#DejaVuSans-28" x="3084.375"/>
     <use xlink:href="#DejaVuSans-31" x="3123.388672"/>
     <use xlink:href="#DejaVuSans-36" x="3187.011719"/>
     <use xlink:href="#DejaVuSans-20" x="3250.634766"/>
     <use xlink:href="#DejaVuSans-433" x="3282.421875"/>
     <use xlink:href="#DejaVuSans-43e" x="3334.960938"/>
     <use xlink:href="#DejaVuSans-440" x="3396.142578"/>
     <use xlink:href="#DejaVuSans-43e" x="3459.619141"/>
     <use xlink:href="#DejaVuSans-434" x="3520.800781"/>
     <use xlink:href="#DejaVuSans-43e" x="3589.941406"/>
     <use xlink:href="#DejaVuSans-432" x="3651.123047"/>
     <use xlink:href="#DejaVuSans-29" x="3710.058594"/>
    </g>
   </g>
   <g id="legend_1">
    <g id="patch_7">
     <path d="M 448.538437 109.265156 
L 769.9 109.265156 
Q 772.1 109.265156 772.1 107.065156 
L 772.1 59.54 
Q 772.1 57.34 769.9 57.34 
L 448.538437 57.34 
Q 446.338437 57.34 446.338437 59.54 
L 446.338437 107.065156 
Q 446.338437 109.265156 448.538437 109.265156 
z
" style="fill: #eaeaf2; opacity: 0.8; stroke: #cccccc; stroke-linejoin: miter"/>
    </g>
    <g id="line2d_18">
     <path d="M 450.738437 66.248281 
L 461.738437 66.248281 
L 472.738437 66.248281 
" style="fill: none; stroke: #0000ff; stroke-linecap: round"/>
    </g>
    <g id="text_18">
     <!-- Наилучшее решение на каждой итерации -->
     <g style="fill: #262626" transform="translate(481.538437 70.098281) scale(0.11 -0.11)">
      <defs>
       <path id="DejaVuSans-447" d="M 2625 0 
L 2625 1472 
L 1553 1472 
Q 1075 1472 756 1769 
Q 469 2038 469 2613 
L 469 3500 
L 1044 3500 
L 1044 2666 
Q 1044 2300 1206 2116 
Q 1372 1931 1697 1931 
L 2625 1931 
L 2625 3500 
L 3200 3500 
L 3200 0 
L 2625 0 
z
" transform="scale(0.015625)"/>
       <path id="DejaVuSans-43a" d="M 581 3500 
L 1153 3500 
L 1153 1856 
L 2775 3500 
L 3481 3500 
L 2144 2147 
L 3653 0 
L 3009 0 
L 1769 1766 
L 1153 1141 
L 1153 0 
L 581 0 
L 581 3500 
z
" transform="scale(0.015625)"/>
       <path id="DejaVuSans-436" d="M 2597 3500 
L 3169 3500 
L 3169 1856 
L 4697 3500 
L 5366 3500 
L 4109 2153 
L 5547 0 
L 4931 0 
L 3753 1769 
L 3169 1141 
L 3169 0 
L 2597 0 
L 2597 1141 
L 2013 1769 
L 834 0 
L 219 0 
L 1656 2153 
L 400 3500 
L 1069 3500 
L 2597 1856 
L 2597 3500 
z
" transform="scale(0.015625)"/>
       <path id="DejaVuSans-439" d="M 3578 3500 
L 3578 0 
L 3006 0 
L 3006 2809 
L 1319 0 
L 581 0 
L 581 3500 
L 1153 3500 
L 1153 697 
L 2838 3500 
L 3578 3500 
z
M 1102 4833 
L 1471 4833 
Q 1505 4599 1656 4481 
Q 1808 4364 2080 4364 
Q 2349 4364 2499 4480 
Q 2649 4596 2689 4833 
L 3058 4833 
Q 3027 4386 2780 4161 
Q 2533 3936 2080 3936 
Q 1627 3936 1380 4161 
Q 1133 4386 1102 4833 
z
" transform="scale(0.015625)"/>
      </defs>
      <use xlink:href="#DejaVuSans-41d"/>
      <use xlink:href="#DejaVuSans-430" x="75.195312"/>
      <use xlink:href="#DejaVuSans-438" x="136.474609"/>
      <use xlink:href="#DejaVuSans-43b" x="201.464844"/>
      <use xlink:href="#DejaVuSans-443" x="265.380859"/>
      <use xlink:href="#DejaVuSans-447" x="324.560547"/>
      <use xlink:href="#DejaVuSans-448" x="383.642578"/>
      <use xlink:href="#DejaVuSans-435" x="475.146484"/>
      <use xlink:href="#DejaVuSans-435" x="536.669922"/>
      <use xlink:href="#DejaVuSans-20" x="598.193359"/>
      <use xlink:href="#DejaVuSans-440" x="629.980469"/>
      <use xlink:href="#DejaVuSans-435" x="693.457031"/>
      <use xlink:href="#DejaVuSans-448" x="754.980469"/>
      <use xlink:href="#DejaVuSans-435" x="846.484375"/>
      <use xlink:href="#DejaVuSans-43d" x="908.007812"/>
      <use xlink:href="#DejaVuSans-438" x="973.388672"/>
      <use xlink:href="#DejaVuSans-435" x="1038.378906"/>
      <use xlink:href="#DejaVuSans-20" x="1099.902344"/>
      <use xlink:href="#DejaVuSans-43d" x="1131.689453"/>
      <use xlink:href="#DejaVuSans-430" x="1197.070312"/>
      <use xlink:href="#DejaVuSans-20" x="1258.349609"/>
      <use xlink:href="#DejaVuSans-43a" x="1290.136719"/>
      <use xlink:href="#DejaVuSans-430" x="1350.537109"/>
      <use xlink:href="#DejaVuSans-436" x="1411.816406"/>
      <use xlink:href="#DejaVuSans-434" x="1501.904297"/>
      <use xlink:href="#DejaVuSans-43e" x="1571.044922"/>
      <use xlink:href="#DejaVuSans-439" x="1632.226562"/>
      <use xlink:href="#DejaVuSans-20" x="1697.216797"/>
      <use xlink:href="#DejaVuSans-438" x="1729.003906"/>
      <use xlink:href="#DejaVuSans-442" x="1793.994141"/>
      <use xlink:href="#DejaVuSans-435" x="1852.246094"/>
      <use xlink:href="#DejaVuSans-440" x="1913.769531"/>
      <use xlink:href="#DejaVuSans-430" x="1977.246094"/>
      <use xlink:href="#DejaVuSans-446" x="2038.525391"/>
      <use xlink:href="#DejaVuSans-438" x="2106.591797"/>
      <use xlink:href="#DejaVuSans-438" x="2171.582031"/>
     </g>
    </g>
    <g id="line2d_19">
     <path d="M 450.738437 82.581562 
L 461.738437 82.581562 
L 472.738437 82.581562 
" style="fill: none; stroke: #ff0000; stroke-width: 1.5; stroke-linecap: round"/>
    </g>
    <g id="text_19">
     <!-- Наилучшее решение с начала работы алгоритма -->
     <g style="fill: #262626" transform="translate(481.538437 86.431562) scale(0.11 -0.11)">
      <defs>
       <path id="DejaVuSans-431" d="M 1991 3584 
Q 2741 3584 3169 3096 
Q 3597 2609 3597 1747 
Q 3597 888 3169 398 
Q 2741 -91 1991 -91 
Q 1238 -91 822 384 
Q 406 859 384 1747 
L 366 2463 
Q 350 2834 350 2963 
Q 350 3463 531 3831 
Q 816 4409 1308 4659 
Q 1800 4909 2625 4916 
Q 3006 4919 3175 4972 
L 3334 4516 
Q 3181 4453 3041 4450 
L 2259 4397 
Q 1866 4369 1628 4231 
Q 1006 3866 947 3388 
L 925 3213 
Q 1331 3584 1991 3584 
z
M 1991 3097 
Q 1528 3097 1259 2736 
Q 991 2375 991 1747 
Q 991 1119 1258 758 
Q 1525 397 1991 397 
Q 2450 397 2719 759 
Q 2988 1122 2988 1747 
Q 2988 2369 2719 2733 
Q 2450 3097 1991 3097 
z
" transform="scale(0.015625)"/>
       <path id="DejaVuSans-44b" d="M 3907 3500 
L 4482 3500 
L 4482 0 
L 3907 0 
L 3907 3500 
z
M 4195 3584 
L 4195 3584 
z
M 2781 1038 
Q 2781 1319 2576 1466 
Q 2372 1613 1978 1613 
L 1159 1613 
L 1159 459 
L 1978 459 
Q 2372 459 2576 607 
Q 2781 756 2781 1038 
z
M 581 3500 
L 1159 3500 
L 1159 2072 
L 2003 2072 
Q 2672 2072 3033 1817 
Q 3394 1563 3394 1038 
Q 3394 513 3033 256 
Q 2672 0 2003 0 
L 581 0 
L 581 3500 
z
" transform="scale(0.015625)"/>
      </defs>
      <use xlink:href="#DejaVuSans-41d"/>
      <use xlink:href="#DejaVuSans-430" x="75.195312"/>
      <use xlink:href="#DejaVuSans-438" x="136.474609"/>
      <use xlink:href="#DejaVuSans-43b" x="201.464844"/>
      <use xlink:href="#DejaVuSans-443" x="265.380859"/>
      <use xlink:href="#DejaVuSans-447" x="324.560547"/>
      <use xlink:href="#DejaVuSans-448" x="383.642578"/>
      <use xlink:href="#DejaVuSans-435" x="475.146484"/>
      <use xlink:href="#DejaVuSans-435" x="536.669922"/>
      <use xlink:href="#DejaVuSans-20" x="598.193359"/>
      <use xlink:href="#DejaVuSans-440" x="629.980469"/>
      <use xlink:href="#DejaVuSans-435" x="693.457031"/>
      <use xlink:href="#DejaVuSans-448" x="754.980469"/>
      <use xlink:href="#DejaVuSans-435" x="846.484375"/>
      <use xlink:href="#DejaVuSans-43d" x="908.007812"/>
      <use xlink:href="#DejaVuSans-438" x="973.388672"/>
      <use xlink:href="#DejaVuSans-435" x="1038.378906"/>
      <use xlink:href="#DejaVuSans-20" x="1099.902344"/>
      <use xlink:href="#DejaVuSans-441" x="1131.689453"/>
      <use xlink:href="#DejaVuSans-20" x="1186.669922"/>
      <use xlink:href="#DejaVuSans-43d" x="1218.457031"/>
      <use xlink:href="#DejaVuSans-430" x="1283.837891"/>
      <use xlink:href="#DejaVuSans-447" x="1345.117188"/>
      <use xlink:href="#DejaVuSans-430" x="1404.199219"/>
      <use xlink:href="#DejaVuSans-43b" x="1465.478516"/>
      <use xlink:href="#DejaVuSans-430" x="1529.394531"/>
      <use xlink:href="#DejaVuSans-20" x="1590.673828"/>
      <use xlink:href="#DejaVuSans-440" x="1622.460938"/>
      <use xlink:href="#DejaVuSans-430" x="1685.9375"/>
      <use xlink:href="#DejaVuSans-431" x="1747.216797"/>
      <use xlink:href="#DejaVuSans-43e" x="1808.886719"/>
      <use xlink:href="#DejaVuSans-442" x="1870.068359"/>
      <use xlink:href="#DejaVuSans-44b" x="1928.320312"/>
      <use xlink:href="#DejaVuSans-20" x="2007.275391"/>
      <use xlink:href="#DejaVuSans-430" x="2039.0625"/>
      <use xlink:href="#DejaVuSans-43b" x="2100.341797"/>
      <use xlink:href="#DejaVuSans-433" x="2164.257812"/>
      <use xlink:href="#DejaVuSans-43e" x="2216.796875"/>
      <use xlink:href="#DejaVuSans-440" x="2277.978516"/>
      <use xlink:href="#DejaVuSans-438" x="2341.455078"/>
      <use xlink:href="#DejaVuSans-442" x="2406.445312"/>
      <use xlink:href="#DejaVuSans-43c" x="2464.697266"/>
      <use xlink:href="#DejaVuSans-430" x="2540.136719"/>
     </g>
    </g>
    <g id="line2d_20">
     <path d="M 450.738437 98.7275 
L 461.738437 98.7275 
L 472.738437 98.7275 
" style="fill: none; stroke-dasharray: 3.7,1.6; stroke-dashoffset: 0; stroke: #008000"/>
    </g>
    <g id="text_20">
     <!-- Кратчайший маршрут -->
     <g style="fill: #262626" transform="translate(481.538437 102.5775) scale(0.11 -0.11)">
      <defs>
       <path id="DejaVuSans-41a" d="M 628 4666 
L 1259 4666 
L 1259 2359 
L 3516 4666 
L 4325 4666 
L 2522 2822 
L 4419 0 
L 3731 0 
L 2113 2403 
L 1259 1531 
L 1259 0 
L 628 0 
L 628 4666 
z
" transform="scale(0.015625)"/>
      </defs>
      <use xlink:href="#DejaVuSans-41a"/>
      <use xlink:href="#DejaVuSans-440" x="70.996094"/>
      <use xlink:href="#DejaVuSans-430" x="134.472656"/>
      <use xlink:href="#DejaVuSans-442" x="195.751953"/>
      <use xlink:href="#DejaVuSans-447" x="254.003906"/>
      <use xlink:href="#DejaVuSans-430" x="313.085938"/>
      <use xlink:href="#DejaVuSans-439" x="374.365234"/>
      <use xlink:href="#DejaVuSans-448" x="439.355469"/>
      <use xlink:href="#DejaVuSans-438" x="530.859375"/>
      <use xlink:href="#DejaVuSans-439" x="595.849609"/>
      <use xlink:href="#DejaVuSans-20" x="660.839844"/>
      <use xlink:href="#DejaVuSans-43c" x="692.626953"/>
      <use xlink:href="#DejaVuSans-430" x="768.066406"/>
      <use xlink:href="#DejaVuSans-440" x="829.345703"/>
      <use xlink:href="#DejaVuSans-448" x="892.822266"/>
      <use xlink:href="#DejaVuSans-440" x="984.326172"/>
      <use xlink:href="#DejaVuSans-443" x="1047.802734"/>
      <use xlink:href="#DejaVuSans-442" x="1106.982422"/>
     </g>
    </g>
   </g>
  </g>
 </g>
 <defs>
  <clipPath id="p87531db910">
   <rect x="108" y="51.84" width="669.6" height="332.64"/>
  </clipPath>
 </defs>
</svg>
