<?xml version="1.0" encoding="utf-8" standalone="no"?>
<!DOCTYPE svg PUBLIC "-//W3C//DTD SVG 1.1//EN"
  "http://www.w3.org/Graphics/SVG/1.1/DTD/svg11.dtd">
<svg xmlns:xlink="http://www.w3.org/1999/xlink" width="864pt" height="432pt" viewBox="0 0 864 432" xmlns="http://www.w3.org/2000/svg" version="1.1">
 <metadata>
  <rdf:RDF xmlns:dc="http://purl.org/dc/elements/1.1/" xmlns:cc="http://creativecommons.org/ns#" xmlns:rdf="http://www.w3.org/1999/02/22-rdf-syntax-ns#">
   <cc:Work>
    <dc:type rdf:resource="http://purl.org/dc/dcmitype/StillImage"/>
    <dc:date>2023-01-12T20:01:35.079157</dc:date>
    <dc:format>image/svg+xml</dc:format>
    <dc:creator>
     <cc:Agent>
      <dc:title>Matplotlib v3.6.2, https://matplotlib.org/</dc:title>
     </cc:Agent>
    </dc:creator>
   </cc:Work>
  </rdf:RDF>
 </metadata>
 <defs>
  <style type="text/css">*{stroke-linejoin: round; stroke-linecap: butt}</style>
 </defs>
 <g id="figure_1">
  <g id="patch_1">
   <path d="M 0 432 
L 864 432 
L 864 0 
L 0 0 
z
" style="fill: #ffffff"/>
  </g>
  <g id="axes_1">
   <g id="patch_2">
    <path d="M 108 384.48 
L 777.6 384.48 
L 777.6 51.84 
L 108 51.84 
z
" style="fill: #eaeaf2"/>
   </g>
   <g id="matplotlib.axis_1">
    <g id="xtick_1">
     <g id="line2d_1">
      <path d="M 133.321008 384.48 
L 133.321008 51.84 
" clip-path="url(#p428a8e466a)" style="fill: none; stroke: #ffffff; stroke-linecap: round"/>
     </g>
     <g id="text_1">
      <!-- 0 -->
      <g style="fill: #262626" transform="translate(129.821633 402.338281) scale(0.11 -0.11)">
       <defs>
        <path id="DejaVuSans-30" d="M 2034 4250 
Q 1547 4250 1301 3770 
Q 1056 3291 1056 2328 
Q 1056 1369 1301 889 
Q 1547 409 2034 409 
Q 2525 409 2770 889 
Q 3016 1369 3016 2328 
Q 3016 3291 2770 3770 
Q 2525 4250 2034 4250 
z
M 2034 4750 
Q 2819 4750 3233 4129 
Q 3647 3509 3647 2328 
Q 3647 1150 3233 529 
Q 2819 -91 2034 -91 
Q 1250 -91 836 529 
Q 422 1150 422 2328 
Q 422 3509 836 4129 
Q 1250 4750 2034 4750 
z
" transform="scale(0.015625)"/>
       </defs>
       <use xlink:href="#DejaVuSans-30"/>
      </g>
     </g>
    </g>
    <g id="xtick_2">
     <g id="line2d_2">
      <path d="M 235.628113 384.48 
L 235.628113 51.84 
" clip-path="url(#p428a8e466a)" style="fill: none; stroke: #ffffff; stroke-linecap: round"/>
     </g>
     <g id="text_2">
      <!-- 20 -->
      <g style="fill: #262626" transform="translate(228.629363 402.338281) scale(0.11 -0.11)">
       <defs>
        <path id="DejaVuSans-32" d="M 1228 531 
L 3431 531 
L 3431 0 
L 469 0 
L 469 531 
Q 828 903 1448 1529 
Q 2069 2156 2228 2338 
Q 2531 2678 2651 2914 
Q 2772 3150 2772 3378 
Q 2772 3750 2511 3984 
Q 2250 4219 1831 4219 
Q 1534 4219 1204 4116 
Q 875 4013 500 3803 
L 500 4441 
Q 881 4594 1212 4672 
Q 1544 4750 1819 4750 
Q 2544 4750 2975 4387 
Q 3406 4025 3406 3419 
Q 3406 3131 3298 2873 
Q 3191 2616 2906 2266 
Q 2828 2175 2409 1742 
Q 1991 1309 1228 531 
z
" transform="scale(0.015625)"/>
       </defs>
       <use xlink:href="#DejaVuSans-32"/>
       <use xlink:href="#DejaVuSans-30" x="63.623047"/>
      </g>
     </g>
    </g>
    <g id="xtick_3">
     <g id="line2d_3">
      <path d="M 337.935218 384.48 
L 337.935218 51.84 
" clip-path="url(#p428a8e466a)" style="fill: none; stroke: #ffffff; stroke-linecap: round"/>
     </g>
     <g id="text_3">
      <!-- 40 -->
      <g style="fill: #262626" transform="translate(330.936468 402.338281) scale(0.11 -0.11)">
       <defs>
        <path id="DejaVuSans-34" d="M 2419 4116 
L 825 1625 
L 2419 1625 
L 2419 4116 
z
M 2253 4666 
L 3047 4666 
L 3047 1625 
L 3713 1625 
L 3713 1100 
L 3047 1100 
L 3047 0 
L 2419 0 
L 2419 1100 
L 313 1100 
L 313 1709 
L 2253 4666 
z
" transform="scale(0.015625)"/>
       </defs>
       <use xlink:href="#DejaVuSans-34"/>
       <use xlink:href="#DejaVuSans-30" x="63.623047"/>
      </g>
     </g>
    </g>
    <g id="xtick_4">
     <g id="line2d_4">
      <path d="M 440.242322 384.48 
L 440.242322 51.84 
" clip-path="url(#p428a8e466a)" style="fill: none; stroke: #ffffff; stroke-linecap: round"/>
     </g>
     <g id="text_4">
      <!-- 60 -->
      <g style="fill: #262626" transform="translate(433.243572 402.338281) scale(0.11 -0.11)">
       <defs>
        <path id="DejaVuSans-36" d="M 2113 2584 
Q 1688 2584 1439 2293 
Q 1191 2003 1191 1497 
Q 1191 994 1439 701 
Q 1688 409 2113 409 
Q 2538 409 2786 701 
Q 3034 994 3034 1497 
Q 3034 2003 2786 2293 
Q 2538 2584 2113 2584 
z
M 3366 4563 
L 3366 3988 
Q 3128 4100 2886 4159 
Q 2644 4219 2406 4219 
Q 1781 4219 1451 3797 
Q 1122 3375 1075 2522 
Q 1259 2794 1537 2939 
Q 1816 3084 2150 3084 
Q 2853 3084 3261 2657 
Q 3669 2231 3669 1497 
Q 3669 778 3244 343 
Q 2819 -91 2113 -91 
Q 1303 -91 875 529 
Q 447 1150 447 2328 
Q 447 3434 972 4092 
Q 1497 4750 2381 4750 
Q 2619 4750 2861 4703 
Q 3103 4656 3366 4563 
z
" transform="scale(0.015625)"/>
       </defs>
       <use xlink:href="#DejaVuSans-36"/>
       <use xlink:href="#DejaVuSans-30" x="63.623047"/>
      </g>
     </g>
    </g>
    <g id="xtick_5">
     <g id="line2d_5">
      <path d="M 542.549427 384.48 
L 542.549427 51.84 
" clip-path="url(#p428a8e466a)" style="fill: none; stroke: #ffffff; stroke-linecap: round"/>
     </g>
     <g id="text_5">
      <!-- 80 -->
      <g style="fill: #262626" transform="translate(535.550677 402.338281) scale(0.11 -0.11)">
       <defs>
        <path id="DejaVuSans-38" d="M 2034 2216 
Q 1584 2216 1326 1975 
Q 1069 1734 1069 1313 
Q 1069 891 1326 650 
Q 1584 409 2034 409 
Q 2484 409 2743 651 
Q 3003 894 3003 1313 
Q 3003 1734 2745 1975 
Q 2488 2216 2034 2216 
z
M 1403 2484 
Q 997 2584 770 2862 
Q 544 3141 544 3541 
Q 544 4100 942 4425 
Q 1341 4750 2034 4750 
Q 2731 4750 3128 4425 
Q 3525 4100 3525 3541 
Q 3525 3141 3298 2862 
Q 3072 2584 2669 2484 
Q 3125 2378 3379 2068 
Q 3634 1759 3634 1313 
Q 3634 634 3220 271 
Q 2806 -91 2034 -91 
Q 1263 -91 848 271 
Q 434 634 434 1313 
Q 434 1759 690 2068 
Q 947 2378 1403 2484 
z
M 1172 3481 
Q 1172 3119 1398 2916 
Q 1625 2713 2034 2713 
Q 2441 2713 2670 2916 
Q 2900 3119 2900 3481 
Q 2900 3844 2670 4047 
Q 2441 4250 2034 4250 
Q 1625 4250 1398 4047 
Q 1172 3844 1172 3481 
z
" transform="scale(0.015625)"/>
       </defs>
       <use xlink:href="#DejaVuSans-38"/>
       <use xlink:href="#DejaVuSans-30" x="63.623047"/>
      </g>
     </g>
    </g>
    <g id="xtick_6">
     <g id="line2d_6">
      <path d="M 644.856532 384.48 
L 644.856532 51.84 
" clip-path="url(#p428a8e466a)" style="fill: none; stroke: #ffffff; stroke-linecap: round"/>
     </g>
     <g id="text_6">
      <!-- 100 -->
      <g style="fill: #262626" transform="translate(634.358407 402.338281) scale(0.11 -0.11)">
       <defs>
        <path id="DejaVuSans-31" d="M 794 531 
L 1825 531 
L 1825 4091 
L 703 3866 
L 703 4441 
L 1819 4666 
L 2450 4666 
L 2450 531 
L 3481 531 
L 3481 0 
L 794 0 
L 794 531 
z
" transform="scale(0.015625)"/>
       </defs>
       <use xlink:href="#DejaVuSans-31"/>
       <use xlink:href="#DejaVuSans-30" x="63.623047"/>
       <use xlink:href="#DejaVuSans-30" x="127.246094"/>
      </g>
     </g>
    </g>
    <g id="xtick_7">
     <g id="line2d_7">
      <path d="M 747.163636 384.48 
L 747.163636 51.84 
" clip-path="url(#p428a8e466a)" style="fill: none; stroke: #ffffff; stroke-linecap: round"/>
     </g>
     <g id="text_7">
      <!-- 120 -->
      <g style="fill: #262626" transform="translate(736.665511 402.338281) scale(0.11 -0.11)">
       <use xlink:href="#DejaVuSans-31"/>
       <use xlink:href="#DejaVuSans-32" x="63.623047"/>
       <use xlink:href="#DejaVuSans-30" x="127.246094"/>
      </g>
     </g>
    </g>
    <g id="text_8">
     <!-- Количество итераций -->
     <g style="fill: #262626" transform="translate(367.763594 418.503906) scale(0.13 -0.13)">
      <defs>
       <path id="DejaVuSans-41a" d="M 628 4666 
L 1259 4666 
L 1259 2359 
L 3516 4666 
L 4325 4666 
L 2522 2822 
L 4419 0 
L 3731 0 
L 2113 2403 
L 1259 1531 
L 1259 0 
L 628 0 
L 628 4666 
z
" transform="scale(0.015625)"/>
       <path id="DejaVuSans-43e" d="M 1959 3097 
Q 1497 3097 1228 2736 
Q 959 2375 959 1747 
Q 959 1119 1226 758 
Q 1494 397 1959 397 
Q 2419 397 2687 759 
Q 2956 1122 2956 1747 
Q 2956 2369 2687 2733 
Q 2419 3097 1959 3097 
z
M 1959 3584 
Q 2709 3584 3137 3096 
Q 3566 2609 3566 1747 
Q 3566 888 3137 398 
Q 2709 -91 1959 -91 
Q 1206 -91 779 398 
Q 353 888 353 1747 
Q 353 2609 779 3096 
Q 1206 3584 1959 3584 
z
" transform="scale(0.015625)"/>
       <path id="DejaVuSans-43b" d="M 238 0 
L 238 478 
Q 806 566 981 959 
Q 1194 1513 1194 2928 
L 1194 3500 
L 3559 3500 
L 3559 0 
L 2984 0 
L 2984 3041 
L 1769 3041 
L 1769 2694 
Q 1769 1344 1494 738 
Q 1200 91 238 0 
z
" transform="scale(0.015625)"/>
       <path id="DejaVuSans-438" d="M 3578 3500 
L 3578 0 
L 3006 0 
L 3006 2809 
L 1319 0 
L 581 0 
L 581 3500 
L 1153 3500 
L 1153 697 
L 2838 3500 
L 3578 3500 
z
" transform="scale(0.015625)"/>
       <path id="DejaVuSans-447" d="M 2625 0 
L 2625 1472 
L 1553 1472 
Q 1075 1472 756 1769 
Q 469 2038 469 2613 
L 469 3500 
L 1044 3500 
L 1044 2666 
Q 1044 2300 1206 2116 
Q 1372 1931 1697 1931 
L 2625 1931 
L 2625 3500 
L 3200 3500 
L 3200 0 
L 2625 0 
z
" transform="scale(0.015625)"/>
       <path id="DejaVuSans-435" d="M 3597 1894 
L 3597 1613 
L 953 1613 
Q 991 1019 1311 708 
Q 1631 397 2203 397 
Q 2534 397 2845 478 
Q 3156 559 3463 722 
L 3463 178 
Q 3153 47 2828 -22 
Q 2503 -91 2169 -91 
Q 1331 -91 842 396 
Q 353 884 353 1716 
Q 353 2575 817 3079 
Q 1281 3584 2069 3584 
Q 2775 3584 3186 3129 
Q 3597 2675 3597 1894 
z
M 3022 2063 
Q 3016 2534 2758 2815 
Q 2500 3097 2075 3097 
Q 1594 3097 1305 2825 
Q 1016 2553 972 2059 
L 3022 2063 
z
" transform="scale(0.015625)"/>
       <path id="DejaVuSans-441" d="M 3122 3366 
L 3122 2828 
Q 2878 2963 2633 3030 
Q 2388 3097 2138 3097 
Q 1578 3097 1268 2742 
Q 959 2388 959 1747 
Q 959 1106 1268 751 
Q 1578 397 2138 397 
Q 2388 397 2633 464 
Q 2878 531 3122 666 
L 3122 134 
Q 2881 22 2623 -34 
Q 2366 -91 2075 -91 
Q 1284 -91 818 406 
Q 353 903 353 1747 
Q 353 2603 823 3093 
Q 1294 3584 2113 3584 
Q 2378 3584 2631 3529 
Q 2884 3475 3122 3366 
z
" transform="scale(0.015625)"/>
       <path id="DejaVuSans-442" d="M 188 3500 
L 3541 3500 
L 3541 3041 
L 2147 3041 
L 2147 0 
L 1581 0 
L 1581 3041 
L 188 3041 
L 188 3500 
z
" transform="scale(0.015625)"/>
       <path id="DejaVuSans-432" d="M 1156 1613 
L 1156 459 
L 1975 459 
Q 2369 459 2575 607 
Q 2781 756 2781 1038 
Q 2781 1319 2575 1466 
Q 2369 1613 1975 1613 
L 1156 1613 
z
M 1156 3041 
L 1156 2072 
L 1913 2072 
Q 2238 2072 2444 2201 
Q 2650 2331 2650 2563 
Q 2650 2794 2444 2917 
Q 2238 3041 1913 3041 
L 1156 3041 
z
M 581 3500 
L 1950 3500 
Q 2566 3500 2897 3275 
Q 3228 3050 3228 2634 
Q 3228 2313 3059 2123 
Q 2891 1934 2559 1888 
Q 2956 1813 3175 1575 
Q 3394 1338 3394 981 
Q 3394 513 3033 256 
Q 2672 0 2003 0 
L 581 0 
L 581 3500 
z
" transform="scale(0.015625)"/>
       <path id="DejaVuSans-20" transform="scale(0.015625)"/>
       <path id="DejaVuSans-440" d="M 1159 525 
L 1159 -1331 
L 581 -1331 
L 581 3500 
L 1159 3500 
L 1159 2969 
Q 1341 3281 1617 3432 
Q 1894 3584 2278 3584 
Q 2916 3584 3314 3078 
Q 3713 2572 3713 1747 
Q 3713 922 3314 415 
Q 2916 -91 2278 -91 
Q 1894 -91 1617 61 
Q 1341 213 1159 525 
z
M 3116 1747 
Q 3116 2381 2855 2742 
Q 2594 3103 2138 3103 
Q 1681 3103 1420 2742 
Q 1159 2381 1159 1747 
Q 1159 1113 1420 752 
Q 1681 391 2138 391 
Q 2594 391 2855 752 
Q 3116 1113 3116 1747 
z
" transform="scale(0.015625)"/>
       <path id="DejaVuSans-430" d="M 2194 1759 
Q 1497 1759 1228 1600 
Q 959 1441 959 1056 
Q 959 750 1161 570 
Q 1363 391 1709 391 
Q 2188 391 2477 730 
Q 2766 1069 2766 1631 
L 2766 1759 
L 2194 1759 
z
M 3341 1997 
L 3341 0 
L 2766 0 
L 2766 531 
Q 2569 213 2275 61 
Q 1981 -91 1556 -91 
Q 1019 -91 701 211 
Q 384 513 384 1019 
Q 384 1609 779 1909 
Q 1175 2209 1959 2209 
L 2766 2209 
L 2766 2266 
Q 2766 2663 2505 2880 
Q 2244 3097 1772 3097 
Q 1472 3097 1187 3025 
Q 903 2953 641 2809 
L 641 3341 
Q 956 3463 1253 3523 
Q 1550 3584 1831 3584 
Q 2591 3584 2966 3190 
Q 3341 2797 3341 1997 
z
" transform="scale(0.015625)"/>
       <path id="DejaVuSans-446" d="M 3603 0 
L 581 0 
L 581 3500 
L 1159 3500 
L 1159 459 
L 3025 459 
L 3025 3500 
L 3603 3500 
L 3603 459 
L 4063 459 
L 4063 -884 
L 3603 -884 
L 3603 0 
z
" transform="scale(0.015625)"/>
       <path id="DejaVuSans-439" d="M 3578 3500 
L 3578 0 
L 3006 0 
L 3006 2809 
L 1319 0 
L 581 0 
L 581 3500 
L 1153 3500 
L 1153 697 
L 2838 3500 
L 3578 3500 
z
M 1102 4833 
L 1471 4833 
Q 1505 4599 1656 4481 
Q 1808 4364 2080 4364 
Q 2349 4364 2499 4480 
Q 2649 4596 2689 4833 
L 3058 4833 
Q 3027 4386 2780 4161 
Q 2533 3936 2080 3936 
Q 1627 3936 1380 4161 
Q 1133 4386 1102 4833 
z
" transform="scale(0.015625)"/>
      </defs>
      <use xlink:href="#DejaVuSans-41a"/>
      <use xlink:href="#DejaVuSans-43e" x="70.996094"/>
      <use xlink:href="#DejaVuSans-43b" x="132.177734"/>
      <use xlink:href="#DejaVuSans-438" x="196.09375"/>
      <use xlink:href="#DejaVuSans-447" x="261.083984"/>
      <use xlink:href="#DejaVuSans-435" x="320.166016"/>
      <use xlink:href="#DejaVuSans-441" x="381.689453"/>
      <use xlink:href="#DejaVuSans-442" x="436.669922"/>
      <use xlink:href="#DejaVuSans-432" x="494.921875"/>
      <use xlink:href="#DejaVuSans-43e" x="553.857422"/>
      <use xlink:href="#DejaVuSans-20" x="615.039062"/>
      <use xlink:href="#DejaVuSans-438" x="646.826172"/>
      <use xlink:href="#DejaVuSans-442" x="711.816406"/>
      <use xlink:href="#DejaVuSans-435" x="770.068359"/>
      <use xlink:href="#DejaVuSans-440" x="831.591797"/>
      <use xlink:href="#DejaVuSans-430" x="895.068359"/>
      <use xlink:href="#DejaVuSans-446" x="956.347656"/>
      <use xlink:href="#DejaVuSans-438" x="1024.414062"/>
      <use xlink:href="#DejaVuSans-439" x="1089.404297"/>
     </g>
    </g>
   </g>
   <g id="matplotlib.axis_2">
    <g id="ytick_1">
     <g id="line2d_8">
      <path d="M 108 382.116094 
L 777.6 382.116094 
" clip-path="url(#p428a8e466a)" style="fill: none; stroke: #ffffff; stroke-linecap: round"/>
     </g>
     <g id="text_9">
      <!-- 14000 -->
      <g style="fill: #262626" transform="translate(63.50625 386.295235) scale(0.11 -0.11)">
       <use xlink:href="#DejaVuSans-31"/>
       <use xlink:href="#DejaVuSans-34" x="63.623047"/>
       <use xlink:href="#DejaVuSans-30" x="127.246094"/>
       <use xlink:href="#DejaVuSans-30" x="190.869141"/>
       <use xlink:href="#DejaVuSans-30" x="254.492188"/>
      </g>
     </g>
    </g>
    <g id="ytick_2">
     <g id="line2d_9">
      <path d="M 108 314.801613 
L 777.6 314.801613 
" clip-path="url(#p428a8e466a)" style="fill: none; stroke: #ffffff; stroke-linecap: round"/>
     </g>
     <g id="text_10">
      <!-- 16000 -->
      <g style="fill: #262626" transform="translate(63.50625 318.980754) scale(0.11 -0.11)">
       <use xlink:href="#DejaVuSans-31"/>
       <use xlink:href="#DejaVuSans-36" x="63.623047"/>
       <use xlink:href="#DejaVuSans-30" x="127.246094"/>
       <use xlink:href="#DejaVuSans-30" x="190.869141"/>
       <use xlink:href="#DejaVuSans-30" x="254.492188"/>
      </g>
     </g>
    </g>
    <g id="ytick_3">
     <g id="line2d_10">
      <path d="M 108 247.487132 
L 777.6 247.487132 
" clip-path="url(#p428a8e466a)" style="fill: none; stroke: #ffffff; stroke-linecap: round"/>
     </g>
     <g id="text_11">
      <!-- 18000 -->
      <g style="fill: #262626" transform="translate(63.50625 251.666272) scale(0.11 -0.11)">
       <use xlink:href="#DejaVuSans-31"/>
       <use xlink:href="#DejaVuSans-38" x="63.623047"/>
       <use xlink:href="#DejaVuSans-30" x="127.246094"/>
       <use xlink:href="#DejaVuSans-30" x="190.869141"/>
       <use xlink:href="#DejaVuSans-30" x="254.492188"/>
      </g>
     </g>
    </g>
    <g id="ytick_4">
     <g id="line2d_11">
      <path d="M 108 180.17265 
L 777.6 180.17265 
" clip-path="url(#p428a8e466a)" style="fill: none; stroke: #ffffff; stroke-linecap: round"/>
     </g>
     <g id="text_12">
      <!-- 20000 -->
      <g style="fill: #262626" transform="translate(63.50625 184.351791) scale(0.11 -0.11)">
       <use xlink:href="#DejaVuSans-32"/>
       <use xlink:href="#DejaVuSans-30" x="63.623047"/>
       <use xlink:href="#DejaVuSans-30" x="127.246094"/>
       <use xlink:href="#DejaVuSans-30" x="190.869141"/>
       <use xlink:href="#DejaVuSans-30" x="254.492188"/>
      </g>
     </g>
    </g>
    <g id="ytick_5">
     <g id="line2d_12">
      <path d="M 108 112.858169 
L 777.6 112.858169 
" clip-path="url(#p428a8e466a)" style="fill: none; stroke: #ffffff; stroke-linecap: round"/>
     </g>
     <g id="text_13">
      <!-- 22000 -->
      <g style="fill: #262626" transform="translate(63.50625 117.03731) scale(0.11 -0.11)">
       <use xlink:href="#DejaVuSans-32"/>
       <use xlink:href="#DejaVuSans-32" x="63.623047"/>
       <use xlink:href="#DejaVuSans-30" x="127.246094"/>
       <use xlink:href="#DejaVuSans-30" x="190.869141"/>
       <use xlink:href="#DejaVuSans-30" x="254.492188"/>
      </g>
     </g>
    </g>
    <g id="text_14">
     <!-- Длина маршрута -->
     <g style="fill: #262626" transform="translate(56.802656 276.619375) rotate(-90) scale(0.13 -0.13)">
      <defs>
       <path id="DejaVuSans-414" d="M 1459 531 
L 3522 531 
L 3522 4134 
L 2006 4134 
L 2006 3472 
Q 2006 1913 1656 878 
Q 1584 666 1459 531 
z
M 538 531 
Q 956 728 1075 1103 
Q 1378 2066 1378 3784 
L 1378 4666 
L 4153 4666 
L 4153 531 
L 4684 531 
L 4684 -1003 
L 4153 -1003 
L 4153 0 
L 847 0 
L 847 -1003 
L 316 -1003 
L 316 531 
L 538 531 
z
" transform="scale(0.015625)"/>
       <path id="DejaVuSans-43d" d="M 581 3500 
L 1159 3500 
L 1159 2072 
L 3025 2072 
L 3025 3500 
L 3603 3500 
L 3603 0 
L 3025 0 
L 3025 1613 
L 1159 1613 
L 1159 0 
L 581 0 
L 581 3500 
z
" transform="scale(0.015625)"/>
       <path id="DejaVuSans-43c" d="M 581 3500 
L 1422 3500 
L 2416 1156 
L 3413 3500 
L 4247 3500 
L 4247 0 
L 3669 0 
L 3669 2950 
L 2703 672 
L 2128 672 
L 1159 2950 
L 1159 0 
L 581 0 
L 581 3500 
z
" transform="scale(0.015625)"/>
       <path id="DejaVuSans-448" d="M 3216 459 
L 4697 459 
L 4697 3500 
L 5275 3500 
L 5275 0 
L 581 0 
L 581 3500 
L 1159 3500 
L 1159 459 
L 2638 459 
L 2638 3500 
L 3216 3500 
L 3216 459 
z
" transform="scale(0.015625)"/>
       <path id="DejaVuSans-443" d="M 2059 -325 
Q 1816 -950 1584 -1140 
Q 1353 -1331 966 -1331 
L 506 -1331 
L 506 -850 
L 844 -850 
Q 1081 -850 1212 -737 
Q 1344 -625 1503 -206 
L 1606 56 
L 191 3500 
L 800 3500 
L 1894 763 
L 2988 3500 
L 3597 3500 
L 2059 -325 
z
" transform="scale(0.015625)"/>
      </defs>
      <use xlink:href="#DejaVuSans-414"/>
      <use xlink:href="#DejaVuSans-43b" x="78.125"/>
      <use xlink:href="#DejaVuSans-438" x="142.041016"/>
      <use xlink:href="#DejaVuSans-43d" x="207.03125"/>
      <use xlink:href="#DejaVuSans-430" x="272.412109"/>
      <use xlink:href="#DejaVuSans-20" x="333.691406"/>
      <use xlink:href="#DejaVuSans-43c" x="365.478516"/>
      <use xlink:href="#DejaVuSans-430" x="440.917969"/>
      <use xlink:href="#DejaVuSans-440" x="502.197266"/>
      <use xlink:href="#DejaVuSans-448" x="565.673828"/>
      <use xlink:href="#DejaVuSans-440" x="657.177734"/>
      <use xlink:href="#DejaVuSans-443" x="720.654297"/>
      <use xlink:href="#DejaVuSans-442" x="779.833984"/>
      <use xlink:href="#DejaVuSans-430" x="838.085938"/>
     </g>
    </g>
   </g>
   <g id="line2d_13">
    <path d="M 138.436364 66.96 
L 143.551719 195.115996 
L 148.667074 195.115996 
L 153.782429 195.115996 
L 158.897785 195.115996 
L 164.01314 195.115996 
L 169.128495 195.115996 
L 174.24385 195.115996 
L 179.359206 195.115996 
L 184.474561 195.115996 
L 189.589916 195.115996 
L 194.705271 195.115996 
L 199.820626 195.115996 
L 204.935982 195.115996 
L 210.051337 199.532744 
L 215.166692 199.532744 
L 220.282047 199.532744 
L 225.397403 199.532744 
L 230.512758 200.062583 
L 235.628113 200.062583 
L 240.743468 200.062583 
L 245.858824 200.062583 
L 250.974179 200.062583 
L 256.089534 200.062583 
L 261.204889 200.062583 
L 266.320244 200.062583 
L 271.4356 200.062583 
L 276.550955 200.062583 
L 281.66631 200.062583 
L 286.781665 200.062583 
L 291.897021 200.062583 
L 297.012376 200.062583 
L 302.127731 200.062583 
L 307.243086 200.062583 
L 312.358442 200.062583 
L 317.473797 200.062583 
L 322.589152 200.062583 
L 327.704507 200.062583 
L 332.819862 200.062583 
L 337.935218 200.062583 
L 343.050573 200.062583 
L 348.165928 200.062583 
L 353.281283 200.062583 
L 358.396639 200.062583 
L 363.511994 200.062583 
L 368.627349 200.062583 
L 373.742704 200.062583 
L 378.85806 200.062583 
L 383.973415 200.062583 
L 389.08877 200.062583 
L 394.204125 200.062583 
L 399.319481 200.062583 
L 404.434836 200.062583 
L 409.550191 200.062583 
L 414.665546 200.062583 
L 419.780901 200.062583 
L 424.896257 200.062583 
L 430.011612 200.062583 
L 435.126967 200.062583 
L 440.242322 200.062583 
L 445.357678 200.062583 
L 450.473033 200.062583 
L 455.588388 200.062583 
L 460.703743 200.062583 
L 465.819099 200.062583 
L 470.934454 200.062583 
L 476.049809 200.062583 
L 481.165164 200.062583 
L 486.280519 200.062583 
L 491.395875 200.062583 
L 496.51123 200.062583 
L 501.626585 200.062583 
L 506.74194 200.062583 
L 511.857296 200.062583 
L 516.972651 200.062583 
L 522.088006 200.062583 
L 527.203361 200.062583 
L 532.318717 200.062583 
L 537.434072 200.062583 
L 542.549427 200.062583 
L 547.664782 200.062583 
L 552.780138 200.062583 
L 557.895493 200.062583 
L 563.010848 200.062583 
L 568.126203 200.062583 
L 573.241558 200.062583 
L 578.356914 200.062583 
L 583.472269 200.062583 
L 588.587624 200.062583 
L 593.702979 200.062583 
L 598.818335 200.062583 
L 603.93369 200.062583 
L 609.049045 200.062583 
L 614.1644 200.062583 
L 619.279756 200.062583 
L 624.395111 200.062583 
L 629.510466 200.062583 
L 634.625821 200.062583 
L 639.741176 200.062583 
L 644.856532 200.062583 
L 649.971887 200.062583 
L 655.087242 200.062583 
L 660.202597 200.062583 
L 665.317953 200.062583 
L 670.433308 200.062583 
L 675.548663 200.062583 
L 680.664018 200.062583 
L 685.779374 200.062583 
L 690.894729 200.062583 
L 696.010084 200.062583 
L 701.125439 200.062583 
L 706.240794 200.062583 
L 711.35615 200.062583 
L 716.471505 200.062583 
L 721.58686 200.062583 
L 726.702215 200.062583 
L 731.817571 200.062583 
L 736.932926 200.062583 
L 742.048281 200.062583 
L 747.163636 200.062583 
" clip-path="url(#p428a8e466a)" style="fill: none; stroke: #0000ff; stroke-width: 1.5; stroke-linecap: round"/>
   </g>
   <g id="line2d_14">
    <path d="M 138.436364 369.36 
L 143.551719 369.36 
L 148.667074 369.36 
L 153.782429 369.36 
L 158.897785 369.36 
L 164.01314 369.36 
L 169.128495 369.36 
L 174.24385 369.36 
L 179.359206 369.36 
L 184.474561 369.36 
L 189.589916 369.36 
L 194.705271 369.36 
L 199.820626 369.36 
L 204.935982 369.36 
L 210.051337 369.36 
L 215.166692 369.36 
L 220.282047 369.36 
L 225.397403 369.36 
L 230.512758 369.36 
L 235.628113 369.36 
L 240.743468 369.36 
L 245.858824 369.36 
L 250.974179 369.36 
L 256.089534 369.36 
L 261.204889 369.36 
L 266.320244 369.36 
L 271.4356 369.36 
L 276.550955 369.36 
L 281.66631 369.36 
L 286.781665 369.36 
L 291.897021 369.36 
L 297.012376 369.36 
L 302.127731 369.36 
L 307.243086 369.36 
L 312.358442 369.36 
L 317.473797 369.36 
L 322.589152 369.36 
L 327.704507 369.36 
L 332.819862 369.36 
L 337.935218 369.36 
L 343.050573 369.36 
L 348.165928 369.36 
L 353.281283 369.36 
L 358.396639 369.36 
L 363.511994 369.36 
L 368.627349 369.36 
L 373.742704 369.36 
L 378.85806 369.36 
L 383.973415 369.36 
L 389.08877 369.36 
L 394.204125 369.36 
L 399.319481 369.36 
L 404.434836 369.36 
L 409.550191 369.36 
L 414.665546 369.36 
L 419.780901 369.36 
L 424.896257 369.36 
L 430.011612 369.36 
L 435.126967 369.36 
L 440.242322 369.36 
L 445.357678 369.36 
L 450.473033 369.36 
L 455.588388 369.36 
L 460.703743 369.36 
L 465.819099 369.36 
L 470.934454 369.36 
L 476.049809 369.36 
L 481.165164 369.36 
L 486.280519 369.36 
L 491.395875 369.36 
L 496.51123 369.36 
L 501.626585 369.36 
L 506.74194 369.36 
L 511.857296 369.36 
L 516.972651 369.36 
L 522.088006 369.36 
L 527.203361 369.36 
L 532.318717 369.36 
L 537.434072 369.36 
L 542.549427 369.36 
L 547.664782 369.36 
L 552.780138 369.36 
L 557.895493 369.36 
L 563.010848 369.36 
L 568.126203 369.36 
L 573.241558 369.36 
L 578.356914 369.36 
L 583.472269 369.36 
L 588.587624 369.36 
L 593.702979 369.36 
L 598.818335 369.36 
L 603.93369 369.36 
L 609.049045 369.36 
L 614.1644 369.36 
L 619.279756 369.36 
L 624.395111 369.36 
L 629.510466 369.36 
L 634.625821 369.36 
L 639.741176 369.36 
L 644.856532 369.36 
L 649.971887 369.36 
L 655.087242 369.36 
L 660.202597 369.36 
L 665.317953 369.36 
L 670.433308 369.36 
L 675.548663 369.36 
L 680.664018 369.36 
L 685.779374 369.36 
L 690.894729 369.36 
L 696.010084 369.36 
L 701.125439 369.36 
L 706.240794 369.36 
L 711.35615 369.36 
L 716.471505 369.36 
L 721.58686 369.36 
L 726.702215 369.36 
L 731.817571 369.36 
L 736.932926 369.36 
L 742.048281 369.36 
L 747.163636 369.36 
" clip-path="url(#p428a8e466a)" style="fill: none; stroke-dasharray: 3.7,1.6; stroke-dashoffset: 0; stroke: #008000"/>
   </g>
   <g id="patch_3">
    <path d="M 108 384.48 
L 108 51.84 
" style="fill: none; stroke: #ffffff; stroke-width: 1.25; stroke-linejoin: miter; stroke-linecap: square"/>
   </g>
   <g id="patch_4">
    <path d="M 777.6 384.48 
L 777.6 51.84 
" style="fill: none; stroke: #ffffff; stroke-width: 1.25; stroke-linejoin: miter; stroke-linecap: square"/>
   </g>
   <g id="patch_5">
    <path d="M 108 384.48 
L 777.6 384.48 
" style="fill: none; stroke: #ffffff; stroke-width: 1.25; stroke-linejoin: miter; stroke-linecap: square"/>
   </g>
   <g id="patch_6">
    <path d="M 108 51.84 
L 777.6 51.84 
" style="fill: none; stroke: #ffffff; stroke-width: 1.25; stroke-linejoin: miter; stroke-linecap: square"/>
   </g>
   <g id="text_15">
    <!-- Длина найденного маршрута алгоритмом Ant System (для lin105) -->
    <g style="fill: #262626" transform="translate(164.3425 27.9235) scale(0.16 -0.16)">
     <defs>
      <path id="DejaVuSans-434" d="M 1384 459 
L 3053 459 
L 3053 3041 
L 1844 3041 
L 1844 2603 
Q 1844 1316 1475 628 
L 1384 459 
z
M 550 459 
Q 834 584 959 850 
Q 1266 1509 1266 2838 
L 1266 3500 
L 3631 3500 
L 3631 459 
L 4091 459 
L 4091 -884 
L 3631 -884 
L 3631 0 
L 794 0 
L 794 -884 
L 334 -884 
L 334 459 
L 550 459 
z
" transform="scale(0.015625)"/>
      <path id="DejaVuSans-433" d="M 581 0 
L 581 3500 
L 3050 3500 
L 3050 3041 
L 1159 3041 
L 1159 0 
L 581 0 
z
" transform="scale(0.015625)"/>
      <path id="DejaVuSans-41" d="M 2188 4044 
L 1331 1722 
L 3047 1722 
L 2188 4044 
z
M 1831 4666 
L 2547 4666 
L 4325 0 
L 3669 0 
L 3244 1197 
L 1141 1197 
L 716 0 
L 50 0 
L 1831 4666 
z
" transform="scale(0.015625)"/>
      <path id="DejaVuSans-6e" d="M 3513 2113 
L 3513 0 
L 2938 0 
L 2938 2094 
Q 2938 2591 2744 2837 
Q 2550 3084 2163 3084 
Q 1697 3084 1428 2787 
Q 1159 2491 1159 1978 
L 1159 0 
L 581 0 
L 581 3500 
L 1159 3500 
L 1159 2956 
Q 1366 3272 1645 3428 
Q 1925 3584 2291 3584 
Q 2894 3584 3203 3211 
Q 3513 2838 3513 2113 
z
" transform="scale(0.015625)"/>
      <path id="DejaVuSans-74" d="M 1172 4494 
L 1172 3500 
L 2356 3500 
L 2356 3053 
L 1172 3053 
L 1172 1153 
Q 1172 725 1289 603 
Q 1406 481 1766 481 
L 2356 481 
L 2356 0 
L 1766 0 
Q 1100 0 847 248 
Q 594 497 594 1153 
L 594 3053 
L 172 3053 
L 172 3500 
L 594 3500 
L 594 4494 
L 1172 4494 
z
" transform="scale(0.015625)"/>
      <path id="DejaVuSans-53" d="M 3425 4513 
L 3425 3897 
Q 3066 4069 2747 4153 
Q 2428 4238 2131 4238 
Q 1616 4238 1336 4038 
Q 1056 3838 1056 3469 
Q 1056 3159 1242 3001 
Q 1428 2844 1947 2747 
L 2328 2669 
Q 3034 2534 3370 2195 
Q 3706 1856 3706 1288 
Q 3706 609 3251 259 
Q 2797 -91 1919 -91 
Q 1588 -91 1214 -16 
Q 841 59 441 206 
L 441 856 
Q 825 641 1194 531 
Q 1563 422 1919 422 
Q 2459 422 2753 634 
Q 3047 847 3047 1241 
Q 3047 1584 2836 1778 
Q 2625 1972 2144 2069 
L 1759 2144 
Q 1053 2284 737 2584 
Q 422 2884 422 3419 
Q 422 4038 858 4394 
Q 1294 4750 2059 4750 
Q 2388 4750 2728 4690 
Q 3069 4631 3425 4513 
z
" transform="scale(0.015625)"/>
      <path id="DejaVuSans-79" d="M 2059 -325 
Q 1816 -950 1584 -1140 
Q 1353 -1331 966 -1331 
L 506 -1331 
L 506 -850 
L 844 -850 
Q 1081 -850 1212 -737 
Q 1344 -625 1503 -206 
L 1606 56 
L 191 3500 
L 800 3500 
L 1894 763 
L 2988 3500 
L 3597 3500 
L 2059 -325 
z
" transform="scale(0.015625)"/>
      <path id="DejaVuSans-73" d="M 2834 3397 
L 2834 2853 
Q 2591 2978 2328 3040 
Q 2066 3103 1784 3103 
Q 1356 3103 1142 2972 
Q 928 2841 928 2578 
Q 928 2378 1081 2264 
Q 1234 2150 1697 2047 
L 1894 2003 
Q 2506 1872 2764 1633 
Q 3022 1394 3022 966 
Q 3022 478 2636 193 
Q 2250 -91 1575 -91 
Q 1294 -91 989 -36 
Q 684 19 347 128 
L 347 722 
Q 666 556 975 473 
Q 1284 391 1588 391 
Q 1994 391 2212 530 
Q 2431 669 2431 922 
Q 2431 1156 2273 1281 
Q 2116 1406 1581 1522 
L 1381 1569 
Q 847 1681 609 1914 
Q 372 2147 372 2553 
Q 372 3047 722 3315 
Q 1072 3584 1716 3584 
Q 2034 3584 2315 3537 
Q 2597 3491 2834 3397 
z
" transform="scale(0.015625)"/>
      <path id="DejaVuSans-65" d="M 3597 1894 
L 3597 1613 
L 953 1613 
Q 991 1019 1311 708 
Q 1631 397 2203 397 
Q 2534 397 2845 478 
Q 3156 559 3463 722 
L 3463 178 
Q 3153 47 2828 -22 
Q 2503 -91 2169 -91 
Q 1331 -91 842 396 
Q 353 884 353 1716 
Q 353 2575 817 3079 
Q 1281 3584 2069 3584 
Q 2775 3584 3186 3129 
Q 3597 2675 3597 1894 
z
M 3022 2063 
Q 3016 2534 2758 2815 
Q 2500 3097 2075 3097 
Q 1594 3097 1305 2825 
Q 1016 2553 972 2059 
L 3022 2063 
z
" transform="scale(0.015625)"/>
      <path id="DejaVuSans-6d" d="M 3328 2828 
Q 3544 3216 3844 3400 
Q 4144 3584 4550 3584 
Q 5097 3584 5394 3201 
Q 5691 2819 5691 2113 
L 5691 0 
L 5113 0 
L 5113 2094 
Q 5113 2597 4934 2840 
Q 4756 3084 4391 3084 
Q 3944 3084 3684 2787 
Q 3425 2491 3425 1978 
L 3425 0 
L 2847 0 
L 2847 2094 
Q 2847 2600 2669 2842 
Q 2491 3084 2119 3084 
Q 1678 3084 1418 2786 
Q 1159 2488 1159 1978 
L 1159 0 
L 581 0 
L 581 3500 
L 1159 3500 
L 1159 2956 
Q 1356 3278 1631 3431 
Q 1906 3584 2284 3584 
Q 2666 3584 2933 3390 
Q 3200 3197 3328 2828 
z
" transform="scale(0.015625)"/>
      <path id="DejaVuSans-28" d="M 1984 4856 
Q 1566 4138 1362 3434 
Q 1159 2731 1159 2009 
Q 1159 1288 1364 580 
Q 1569 -128 1984 -844 
L 1484 -844 
Q 1016 -109 783 600 
Q 550 1309 550 2009 
Q 550 2706 781 3412 
Q 1013 4119 1484 4856 
L 1984 4856 
z
" transform="scale(0.015625)"/>
      <path id="DejaVuSans-44f" d="M 1181 2491 
Q 1181 2231 1381 2084 
Q 1581 1938 1953 1938 
L 2728 1938 
L 2728 3041 
L 1953 3041 
Q 1581 3041 1381 2897 
Q 1181 2753 1181 2491 
z
M 363 0 
L 1431 1534 
Q 1069 1616 828 1830 
Q 588 2044 588 2491 
Q 588 2997 923 3248 
Q 1259 3500 1938 3500 
L 3306 3500 
L 3306 0 
L 2728 0 
L 2728 1478 
L 2013 1478 
L 981 0 
L 363 0 
z
" transform="scale(0.015625)"/>
      <path id="DejaVuSans-6c" d="M 603 4863 
L 1178 4863 
L 1178 0 
L 603 0 
L 603 4863 
z
" transform="scale(0.015625)"/>
      <path id="DejaVuSans-69" d="M 603 3500 
L 1178 3500 
L 1178 0 
L 603 0 
L 603 3500 
z
M 603 4863 
L 1178 4863 
L 1178 4134 
L 603 4134 
L 603 4863 
z
" transform="scale(0.015625)"/>
      <path id="DejaVuSans-35" d="M 691 4666 
L 3169 4666 
L 3169 4134 
L 1269 4134 
L 1269 2991 
Q 1406 3038 1543 3061 
Q 1681 3084 1819 3084 
Q 2600 3084 3056 2656 
Q 3513 2228 3513 1497 
Q 3513 744 3044 326 
Q 2575 -91 1722 -91 
Q 1428 -91 1123 -41 
Q 819 9 494 109 
L 494 744 
Q 775 591 1075 516 
Q 1375 441 1709 441 
Q 2250 441 2565 725 
Q 2881 1009 2881 1497 
Q 2881 1984 2565 2268 
Q 2250 2553 1709 2553 
Q 1456 2553 1204 2497 
Q 953 2441 691 2322 
L 691 4666 
z
" transform="scale(0.015625)"/>
      <path id="DejaVuSans-29" d="M 513 4856 
L 1013 4856 
Q 1481 4119 1714 3412 
Q 1947 2706 1947 2009 
Q 1947 1309 1714 600 
Q 1481 -109 1013 -844 
L 513 -844 
Q 928 -128 1133 580 
Q 1338 1288 1338 2009 
Q 1338 2731 1133 3434 
Q 928 4138 513 4856 
z
" transform="scale(0.015625)"/>
     </defs>
     <use xlink:href="#DejaVuSans-414"/>
     <use xlink:href="#DejaVuSans-43b" x="78.125"/>
     <use xlink:href="#DejaVuSans-438" x="142.041016"/>
     <use xlink:href="#DejaVuSans-43d" x="207.03125"/>
     <use xlink:href="#DejaVuSans-430" x="272.412109"/>
     <use xlink:href="#DejaVuSans-20" x="333.691406"/>
     <use xlink:href="#DejaVuSans-43d" x="365.478516"/>
     <use xlink:href="#DejaVuSans-430" x="430.859375"/>
     <use xlink:href="#DejaVuSans-439" x="492.138672"/>
     <use xlink:href="#DejaVuSans-434" x="557.128906"/>
     <use xlink:href="#DejaVuSans-435" x="626.269531"/>
     <use xlink:href="#DejaVuSans-43d" x="687.792969"/>
     <use xlink:href="#DejaVuSans-43d" x="753.173828"/>
     <use xlink:href="#DejaVuSans-43e" x="818.554688"/>
     <use xlink:href="#DejaVuSans-433" x="879.736328"/>
     <use xlink:href="#DejaVuSans-43e" x="932.275391"/>
     <use xlink:href="#DejaVuSans-20" x="993.457031"/>
     <use xlink:href="#DejaVuSans-43c" x="1025.244141"/>
     <use xlink:href="#DejaVuSans-430" x="1100.683594"/>
     <use xlink:href="#DejaVuSans-440" x="1161.962891"/>
     <use xlink:href="#DejaVuSans-448" x="1225.439453"/>
     <use xlink:href="#DejaVuSans-440" x="1316.943359"/>
     <use xlink:href="#DejaVuSans-443" x="1380.419922"/>
     <use xlink:href="#DejaVuSans-442" x="1439.599609"/>
     <use xlink:href="#DejaVuSans-430" x="1497.851562"/>
     <use xlink:href="#DejaVuSans-20" x="1559.130859"/>
     <use xlink:href="#DejaVuSans-430" x="1590.917969"/>
     <use xlink:href="#DejaVuSans-43b" x="1652.197266"/>
     <use xlink:href="#DejaVuSans-433" x="1716.113281"/>
     <use xlink:href="#DejaVuSans-43e" x="1768.652344"/>
     <use xlink:href="#DejaVuSans-440" x="1829.833984"/>
     <use xlink:href="#DejaVuSans-438" x="1893.310547"/>
     <use xlink:href="#DejaVuSans-442" x="1958.300781"/>
     <use xlink:href="#DejaVuSans-43c" x="2016.552734"/>
     <use xlink:href="#DejaVuSans-43e" x="2091.992188"/>
     <use xlink:href="#DejaVuSans-43c" x="2153.173828"/>
     <use xlink:href="#DejaVuSans-20" x="2228.613281"/>
     <use xlink:href="#DejaVuSans-41" x="2260.400391"/>
     <use xlink:href="#DejaVuSans-6e" x="2328.808594"/>
     <use xlink:href="#DejaVuSans-74" x="2392.1875"/>
     <use xlink:href="#DejaVuSans-20" x="2431.396484"/>
     <use xlink:href="#DejaVuSans-53" x="2463.183594"/>
     <use xlink:href="#DejaVuSans-79" x="2526.660156"/>
     <use xlink:href="#DejaVuSans-73" x="2585.839844"/>
     <use xlink:href="#DejaVuSans-74" x="2637.939453"/>
     <use xlink:href="#DejaVuSans-65" x="2677.148438"/>
     <use xlink:href="#DejaVuSans-6d" x="2738.671875"/>
     <use xlink:href="#DejaVuSans-20" x="2836.083984"/>
     <use xlink:href="#DejaVuSans-28" x="2867.871094"/>
     <use xlink:href="#DejaVuSans-434" x="2906.884766"/>
     <use xlink:href="#DejaVuSans-43b" x="2976.025391"/>
     <use xlink:href="#DejaVuSans-44f" x="3039.941406"/>
     <use xlink:href="#DejaVuSans-20" x="3100.097656"/>
     <use xlink:href="#DejaVuSans-6c" x="3131.884766"/>
     <use xlink:href="#DejaVuSans-69" x="3159.667969"/>
     <use xlink:href="#DejaVuSans-6e" x="3187.451172"/>
     <use xlink:href="#DejaVuSans-31" x="3250.830078"/>
     <use xlink:href="#DejaVuSans-30" x="3314.453125"/>
     <use xlink:href="#DejaVuSans-35" x="3378.076172"/>
     <use xlink:href="#DejaVuSans-29" x="3441.699219"/>
    </g>
    <!-- в зависимости от числа итераций -->
    <g style="fill: #262626" transform="translate(299.56 45.84) scale(0.16 -0.16)">
     <defs>
      <path id="DejaVuSans-437" d="M 2206 1888 
Q 2594 1813 2809 1584 
Q 3025 1356 3025 1019 
Q 3025 478 2622 193 
Q 2219 -91 1475 -91 
Q 1225 -91 961 -47 
Q 697 -3 416 84 
L 416 619 
Q 638 503 903 445 
Q 1169 388 1459 388 
Q 1931 388 2195 563 
Q 2459 738 2459 1019 
Q 2459 1294 2225 1461 
Q 1991 1628 1563 1628 
L 1100 1628 
L 1100 2103 
L 1584 2103 
Q 1947 2103 2158 2242 
Q 2369 2381 2369 2600 
Q 2369 2800 2151 2944 
Q 1934 3088 1563 3088 
Q 1341 3088 1089 3047 
Q 838 3006 534 2916 
L 534 3438 
Q 841 3513 1106 3550 
Q 1372 3588 1609 3588 
Q 2222 3588 2576 3342 
Q 2931 3097 2931 2656 
Q 2931 2366 2743 2164 
Q 2556 1963 2206 1888 
z
" transform="scale(0.015625)"/>
     </defs>
     <use xlink:href="#DejaVuSans-432"/>
     <use xlink:href="#DejaVuSans-20" x="58.935547"/>
     <use xlink:href="#DejaVuSans-437" x="90.722656"/>
     <use xlink:href="#DejaVuSans-430" x="143.896484"/>
     <use xlink:href="#DejaVuSans-432" x="205.175781"/>
     <use xlink:href="#DejaVuSans-438" x="264.111328"/>
     <use xlink:href="#DejaVuSans-441" x="329.101562"/>
     <use xlink:href="#DejaVuSans-438" x="384.082031"/>
     <use xlink:href="#DejaVuSans-43c" x="449.072266"/>
     <use xlink:href="#DejaVuSans-43e" x="524.511719"/>
     <use xlink:href="#DejaVuSans-441" x="585.693359"/>
     <use xlink:href="#DejaVuSans-442" x="640.673828"/>
     <use xlink:href="#DejaVuSans-438" x="698.925781"/>
     <use xlink:href="#DejaVuSans-20" x="763.916016"/>
     <use xlink:href="#DejaVuSans-43e" x="795.703125"/>
     <use xlink:href="#DejaVuSans-442" x="856.884766"/>
     <use xlink:href="#DejaVuSans-20" x="915.136719"/>
     <use xlink:href="#DejaVuSans-447" x="946.923828"/>
     <use xlink:href="#DejaVuSans-438" x="1006.005859"/>
     <use xlink:href="#DejaVuSans-441" x="1070.996094"/>
     <use xlink:href="#DejaVuSans-43b" x="1125.976562"/>
     <use xlink:href="#DejaVuSans-430" x="1189.892578"/>
     <use xlink:href="#DejaVuSans-20" x="1251.171875"/>
     <use xlink:href="#DejaVuSans-438" x="1282.958984"/>
     <use xlink:href="#DejaVuSans-442" x="1347.949219"/>
     <use xlink:href="#DejaVuSans-435" x="1406.201172"/>
     <use xlink:href="#DejaVuSans-440" x="1467.724609"/>
     <use xlink:href="#DejaVuSans-430" x="1531.201172"/>
     <use xlink:href="#DejaVuSans-446" x="1592.480469"/>
     <use xlink:href="#DejaVuSans-438" x="1660.546875"/>
     <use xlink:href="#DejaVuSans-439" x="1725.537109"/>
    </g>
   </g>
   <g id="legend_1">
    <g id="patch_7">
     <path d="M 606.524219 92.931875 
L 769.9 92.931875 
Q 772.1 92.931875 772.1 90.731875 
L 772.1 59.54 
Q 772.1 57.34 769.9 57.34 
L 606.524219 57.34 
Q 604.324219 57.34 604.324219 59.54 
L 604.324219 90.731875 
Q 604.324219 92.931875 606.524219 92.931875 
z
" style="fill: #eaeaf2; opacity: 0.8; stroke: #cccccc; stroke-linejoin: miter"/>
    </g>
    <g id="line2d_15">
     <path d="M 608.724219 66.248281 
L 619.724219 66.248281 
L 630.724219 66.248281 
" style="fill: none; stroke: #0000ff; stroke-width: 1.5; stroke-linecap: round"/>
    </g>
    <g id="text_16">
     <!-- Найденный маршрут -->
     <g style="fill: #262626" transform="translate(639.524219 70.098281) scale(0.11 -0.11)">
      <defs>
       <path id="DejaVuSans-41d" d="M 628 4666 
L 1259 4666 
L 1259 2753 
L 3553 2753 
L 3553 4666 
L 4184 4666 
L 4184 0 
L 3553 0 
L 3553 2222 
L 1259 2222 
L 1259 0 
L 628 0 
L 628 4666 
z
" transform="scale(0.015625)"/>
       <path id="DejaVuSans-44b" d="M 3907 3500 
L 4482 3500 
L 4482 0 
L 3907 0 
L 3907 3500 
z
M 4195 3584 
L 4195 3584 
z
M 2781 1038 
Q 2781 1319 2576 1466 
Q 2372 1613 1978 1613 
L 1159 1613 
L 1159 459 
L 1978 459 
Q 2372 459 2576 607 
Q 2781 756 2781 1038 
z
M 581 3500 
L 1159 3500 
L 1159 2072 
L 2003 2072 
Q 2672 2072 3033 1817 
Q 3394 1563 3394 1038 
Q 3394 513 3033 256 
Q 2672 0 2003 0 
L 581 0 
L 581 3500 
z
" transform="scale(0.015625)"/>
      </defs>
      <use xlink:href="#DejaVuSans-41d"/>
      <use xlink:href="#DejaVuSans-430" x="75.195312"/>
      <use xlink:href="#DejaVuSans-439" x="136.474609"/>
      <use xlink:href="#DejaVuSans-434" x="201.464844"/>
      <use xlink:href="#DejaVuSans-435" x="270.605469"/>
      <use xlink:href="#DejaVuSans-43d" x="332.128906"/>
      <use xlink:href="#DejaVuSans-43d" x="397.509766"/>
      <use xlink:href="#DejaVuSans-44b" x="462.890625"/>
      <use xlink:href="#DejaVuSans-439" x="541.845703"/>
      <use xlink:href="#DejaVuSans-20" x="606.835938"/>
      <use xlink:href="#DejaVuSans-43c" x="638.623047"/>
      <use xlink:href="#DejaVuSans-430" x="714.0625"/>
      <use xlink:href="#DejaVuSans-440" x="775.341797"/>
      <use xlink:href="#DejaVuSans-448" x="838.818359"/>
      <use xlink:href="#DejaVuSans-440" x="930.322266"/>
      <use xlink:href="#DejaVuSans-443" x="993.798828"/>
      <use xlink:href="#DejaVuSans-442" x="1052.978516"/>
     </g>
    </g>
    <g id="line2d_16">
     <path d="M 608.724219 82.394219 
L 619.724219 82.394219 
L 630.724219 82.394219 
" style="fill: none; stroke-dasharray: 3.7,1.6; stroke-dashoffset: 0; stroke: #008000"/>
    </g>
    <g id="text_17">
     <!-- Кратчайший маршрут -->
     <g style="fill: #262626" transform="translate(639.524219 86.244219) scale(0.11 -0.11)">
      <use xlink:href="#DejaVuSans-41a"/>
      <use xlink:href="#DejaVuSans-440" x="70.996094"/>
      <use xlink:href="#DejaVuSans-430" x="134.472656"/>
      <use xlink:href="#DejaVuSans-442" x="195.751953"/>
      <use xlink:href="#DejaVuSans-447" x="254.003906"/>
      <use xlink:href="#DejaVuSans-430" x="313.085938"/>
      <use xlink:href="#DejaVuSans-439" x="374.365234"/>
      <use xlink:href="#DejaVuSans-448" x="439.355469"/>
      <use xlink:href="#DejaVuSans-438" x="530.859375"/>
      <use xlink:href="#DejaVuSans-439" x="595.849609"/>
      <use xlink:href="#DejaVuSans-20" x="660.839844"/>
      <use xlink:href="#DejaVuSans-43c" x="692.626953"/>
      <use xlink:href="#DejaVuSans-430" x="768.066406"/>
      <use xlink:href="#DejaVuSans-440" x="829.345703"/>
      <use xlink:href="#DejaVuSans-448" x="892.822266"/>
      <use xlink:href="#DejaVuSans-440" x="984.326172"/>
      <use xlink:href="#DejaVuSans-443" x="1047.802734"/>
      <use xlink:href="#DejaVuSans-442" x="1106.982422"/>
     </g>
    </g>
   </g>
  </g>
 </g>
 <defs>
  <clipPath id="p428a8e466a">
   <rect x="108" y="51.84" width="669.6" height="332.64"/>
  </clipPath>
 </defs>
</svg>
